<svg width="128" height="38" viewBox="0 0 128 38" fill="none" xmlns="http://www.w3.org/2000/svg">
<path d="M70.3405 14.6C68.5281 14.6 67.0385 15.2951 66.2193 16.5116V15.32C66.2193 15.0966 66.0703 14.9476 65.8469 14.9476H63.8607C63.6373 14.9476 63.4883 15.0966 63.4883 15.32V28.4532C63.4883 28.6766 63.6373 28.8256 63.8607 28.8256H65.8469C66.0703 28.8256 66.2193 28.6766 66.2193 28.4532V20.7074C66.2193 18.5723 67.5599 17.1323 69.5709 17.1323C71.706 17.1323 72.8232 18.4233 72.8232 20.8563V28.4284C72.8232 28.6519 72.972 28.8008 73.1956 28.8008H75.1817C75.4051 28.8008 75.5541 28.6519 75.5541 28.4284V20.2356C75.5541 16.7847 73.568 14.6 70.3405 14.6Z" fill="#9E9E9E"/>
<path d="M98.5185 14.5752C95.589 14.5752 93.4539 16.0648 92.6098 18.6219C92.287 19.5652 92.1133 20.5336 92.1133 22.1969C92.1133 23.1404 92.2623 24.034 92.5104 24.9031L92.5353 24.9775C93.3546 27.5843 95.6635 29.1236 98.6675 29.1236C101.101 29.1236 103.236 28.1801 104.527 26.5415C104.676 26.343 104.676 26.1444 104.477 26.0203L103.211 24.8782C103.037 24.7292 102.838 24.7541 102.64 24.9526C101.994 25.6974 100.827 26.5664 98.8661 26.5664C97.0289 26.5664 95.6139 25.772 95.0676 24.1086C94.9684 23.8106 94.9187 23.4382 94.9187 23.3886C94.9187 23.3141 94.9435 23.2645 95.0428 23.2645H104.477C104.725 23.2645 104.899 23.1155 104.899 22.8921C104.899 20.5336 104.725 19.5405 104.427 18.6219C103.583 16.0648 101.423 14.5752 98.5185 14.5752ZM95.1421 19.3171C95.6139 17.8771 96.9792 17.033 98.6427 17.033C100.281 17.033 101.523 17.8771 101.994 19.3171C102.143 19.7639 102.218 20.2604 102.218 20.9804C102.218 21.0797 102.044 21.1045 101.969 21.1045H94.9932C94.9187 21.1045 94.8691 21.0797 94.8691 20.9804C94.8691 20.2604 95.0179 19.7391 95.1421 19.3171Z" fill="#9E9E9E"/>
<path d="M111.601 26.4174H111.005C109.963 26.4174 109.59 25.9954 109.59 24.8285V9.03883C109.59 8.81539 109.59 8.6416 109.59 8.66643H107.232C107.008 8.66643 106.859 8.81539 106.859 9.03883V24.9775C106.859 27.7828 107.977 28.9746 110.558 28.9746H111.626C111.849 28.9746 111.998 28.8256 111.998 28.6022V26.7898C111.974 26.5664 111.825 26.4174 111.601 26.4174Z" fill="#9E9E9E"/>
<path d="M126.024 26.7898C125.478 26.7898 125.329 26.6408 125.279 25.9704V19.7142C125.279 16.0151 123.616 14.4758 119.37 14.4758C117.31 14.4758 115.473 15.0964 114.256 16.0399C114.107 16.1888 114.082 16.3626 114.182 16.5612L115.026 18.0012C115.125 18.1749 115.373 18.1998 115.572 18.0508C116.59 17.3308 117.682 16.9087 119.147 16.9087C122.052 16.9087 122.648 18.0259 122.648 19.8135C122.648 19.8879 122.623 19.9376 122.523 19.9376H119.122C115.274 19.9376 113.238 21.5514 113.238 24.6051C113.238 27.4104 115.175 29.1483 118.328 29.1483C120.264 29.1483 121.828 28.5028 122.648 27.3856C122.722 28.5276 123.07 28.9496 124.559 28.9496H126.371V27.0876C126.371 26.9388 126.223 26.7898 126.024 26.7898ZM118.948 26.7898C116.987 26.7898 115.92 25.9953 115.92 24.5305C115.92 22.8671 117.012 22.172 119.544 22.172H122.523C122.598 22.172 122.648 22.1969 122.648 22.2961V23.9347C122.623 25.7223 121.257 26.7898 118.948 26.7898Z" fill="#9E9E9E"/>
<path d="M87.8425 8.61687C87.6189 8.61687 87.4701 8.76583 87.4701 8.98927V15.8413C86.7749 15.0221 85.2108 14.5504 83.4234 14.5504C80.7669 14.5504 78.6815 15.9407 77.887 18.2993C77.5146 19.4165 77.316 20.5088 77.3905 21.9735C77.4401 23.0163 77.5146 24.3818 77.9614 25.5237C78.88 27.9319 80.7669 29.1484 83.2991 29.1484C85.3101 29.1484 86.8494 28.627 87.4949 27.7581V28.4285C87.4949 28.6519 87.6438 28.8009 87.8673 28.8009H89.8533C90.0769 28.8009 90.2257 28.6519 90.2257 28.4285V8.98927C90.2257 8.76583 90.2257 8.59205 90.2257 8.61687H87.8425ZM87.4949 23.0659C87.4949 25.1513 85.8315 26.8147 83.7957 26.8147C81.76 26.8147 80.0965 25.35 80.0965 22.7183V22.2964C80.0965 22.2218 80.0965 22.1474 80.0965 22.0728C80.0965 21.9735 80.0965 21.8743 80.0965 21.775V21.1295C80.0965 18.5227 81.76 16.8841 83.7957 16.8841C85.8315 16.8841 87.4949 18.5724 87.4949 20.6329V23.0659Z" fill="#9E9E9E"/>
<path d="M61.651 28.0808L54.5507 10.5532C54.4017 10.1063 53.9797 9.31189 53.1107 9.31189C52.2418 9.31189 51.8447 10.0815 51.6708 10.5532L44.6201 28.0808C44.6201 28.0808 44.347 28.6766 44.3967 28.7511C44.4463 28.8256 44.5456 28.8752 44.6448 28.8752H46.8296C47.0531 28.8752 47.202 28.7759 47.3013 28.5276L49.0392 24.2574H53.1356H57.2071L58.9698 28.5276C59.0691 28.7759 59.2181 28.8752 59.4415 28.8752H61.6263C61.7503 28.8752 61.8249 28.8256 61.8746 28.7511C61.9242 28.6766 61.651 28.0808 61.651 28.0808ZM53.1356 21.5514H50.0819L53.1356 14.1531L56.1892 21.5514H53.1356Z" fill="#9E9E9E"/>
<path d="M20.9575 7.77271L18.6982 4.99214L16.439 7.77271L13.4102 6.13415C13.4102 6.13415 17.0597 1.83917 17.4321 1.39229C17.8044 0.945413 18.152 0.523361 18.6982 0.498535C19.2692 0.523361 19.592 0.945413 19.9644 1.39229C20.3368 1.83917 23.9862 6.13415 23.9862 6.13415L20.9575 7.77271Z" fill="#9E9E9E"/>
<path d="M13.4102 31.6559C13.4102 31.6559 17.0597 35.951 17.4321 36.3978C17.8044 36.8199 18.152 37.2667 18.6982 37.2916C19.2692 37.2667 19.592 36.8446 19.9644 36.3978C20.3368 35.951 23.9862 31.6559 23.9862 31.6559L20.9575 30.0173L18.6982 32.798L16.439 30.0173L13.4102 31.6559Z" fill="#9E9E9E"/>
<path d="M12.4193 9.43609L8.86915 9.06369L9.24155 12.6139L5.91479 13.607C5.91479 13.607 5.44309 7.99615 5.39343 7.40031C5.34378 6.8293 5.29413 6.28311 5.66653 5.88589C6.06375 5.51349 6.60994 5.56314 7.18095 5.6128C7.75196 5.66245 13.3876 6.13415 13.3876 6.13415L12.4193 9.43609Z" fill="#9E9E9E"/>
<path d="M23.9883 31.6557C23.9883 31.6557 29.5992 32.1275 30.195 32.1771C30.766 32.2268 31.3122 32.2765 31.7094 31.9041C32.0818 31.5068 32.0321 30.9606 31.9824 30.3896C31.9328 29.8186 31.4612 24.183 31.4612 24.183L28.1592 25.1761L28.5316 28.7262L24.9814 28.3538L23.9883 31.6557Z" fill="#9E9E9E"/>
<path d="M7.57886 16.6357L4.79829 18.895L7.57886 21.1541L5.94032 24.183C5.94032 24.183 1.64532 20.5335 1.19844 20.1611C0.751566 19.7887 0.329515 19.4411 0.304688 18.895C0.329515 18.3239 0.751566 18.0012 1.19844 17.6288C1.64532 17.2564 5.94032 13.6069 5.94032 13.6069L7.57886 16.6357Z" fill="#9E9E9E"/>
<path d="M31.4589 24.183C31.4589 24.183 35.7787 20.5335 36.2008 20.1611C36.6228 19.7887 37.0697 19.4411 37.0946 18.895C37.0697 18.3488 36.6476 18.0012 36.2008 17.6288C35.7539 17.2564 31.4589 13.6069 31.4589 13.6069L29.8203 16.6357L32.601 18.895L29.8203 21.1541L31.4589 24.183Z" fill="#9E9E9E"/>
<path d="M9.24017 25.176L8.86777 28.7262L12.418 28.3538L13.411 31.6805C13.411 31.6805 7.80022 32.1523 7.20439 32.2019C6.63337 32.2516 6.08719 32.3012 5.68997 31.9288C5.31757 31.5317 5.36722 30.9854 5.41687 30.4145C5.46653 29.8434 5.93823 24.2078 5.93823 24.2078L9.24017 25.176Z" fill="#9E9E9E"/>
<path d="M31.4612 13.607C31.4612 13.607 31.9328 7.99615 31.9824 7.40031C32.0321 6.8293 32.0818 6.28311 31.7094 5.88589C31.3122 5.51349 30.766 5.56314 30.195 5.6128C29.6239 5.66245 23.9883 6.13415 23.9883 6.13415L24.9814 9.43609L28.5316 9.06369L28.1592 12.6139L31.4612 13.607Z" fill="#9E9E9E"/>
</svg>
