<svg width="12" height="15" viewBox="0 0 12 15" fill="none" xmlns="http://www.w3.org/2000/svg">
<g clip-path="url(#clip0)">
<path d="M11.6039 5.736C11.5079 5.616 9.07187 2.784 5.99988 2.784C2.92788 2.784 0.503875 5.616 0.395875 5.736C0.263875 5.892 0.263875 6.12 0.395875 6.264C0.491875 6.384 2.91587 9.216 5.99988 9.216C9.08387 9.216 11.4959 6.384 11.6039 6.264C11.7359 6.108 11.7359 5.892 11.6039 5.736ZM3.51587 7.704C2.47187 7.14 1.66787 6.396 1.27187 6C1.65587 5.604 2.47187 4.86 3.50388 4.296C3.16788 4.776 2.97587 5.364 2.97587 6C2.98787 6.636 3.17987 7.212 3.51587 7.704ZM5.99988 8.184C4.78788 8.184 3.81587 7.2 3.81587 6C3.81587 4.788 4.79988 3.816 5.99988 3.816C7.19987 3.816 8.18387 4.788 8.18387 6C8.18387 7.212 7.21187 8.184 5.99988 8.184ZM8.48387 7.704C8.81987 7.224 9.01188 6.636 9.01188 6C9.01188 5.364 8.81987 4.788 8.48387 4.296C9.52787 4.848 10.3319 5.604 10.7159 6C10.3319 6.396 9.52787 7.14 8.48387 7.704Z" fill="black"/>
<path d="M6.82881 5.92801C6.40881 5.92801 6.07281 5.59201 6.07281 5.17201C6.07281 4.98001 6.14481 4.80001 6.27681 4.66801C6.19281 4.64401 6.09681 4.64401 6.00081 4.64401C5.24481 4.64401 4.63281 5.25601 4.63281 6.01201C4.63281 6.76801 5.24481 7.36801 6.00081 7.36801C6.75681 7.36801 7.36881 6.75601 7.36881 6.00001C7.36881 5.90401 7.35681 5.80801 7.34481 5.72401C7.20081 5.84401 7.03281 5.92801 6.82881 5.92801Z" fill="black"/>
</g>
<defs>
<clipPath id="clip0">
<rect width="12" height="15" fill="white"/>
</clipPath>
</defs>
</svg>
