<svg width="178" height="37" viewBox="0 0 178 37" fill="none" xmlns="http://www.w3.org/2000/svg">
<g clip-path="url(#clip0)">
<path d="M6.86585 16.2825C7.0052 16.178 7.10972 16.1083 7.14455 16.0386C9.72263 9.62831 14.9136 5.9354 20.8014 3.04378C24.5988 1.19731 28.6053 0.256665 32.8556 0.674731C36.026 0.98828 37.524 2.93926 36.4092 5.9354C35.6079 8.06057 34.4233 10.116 33.0995 11.9973C31.8105 13.809 30.1381 15.3418 28.5356 17.1187C28.7446 17.2928 29.0234 17.5715 29.3369 17.8503C32.6118 20.6025 35.5034 23.6684 37.0711 27.7445C37.5589 29.0335 37.8376 30.4967 37.9072 31.8904C38.0117 34.0851 36.8272 35.5135 34.702 36.1755C32.3678 36.8723 30.1034 36.5238 27.8737 35.7226C22.2298 33.7019 17.6659 30.1832 14.2168 25.3406C13.0323 23.6684 11.6736 23.4593 9.82715 23.3548C11.1162 27.64 12.231 31.8904 12.0568 36.3497C10.9072 27.396 6.93553 19.7315 1.39615 12.7638C0.978085 12.2412 0.560019 11.649 0.420664 11.0219C0.316147 10.5341 0.455503 9.76766 0.803892 9.45411C1.04776 9.24509 1.95358 9.38444 2.26712 9.66315C2.99873 10.2902 3.59099 11.0915 4.11358 11.8928C5.1239 13.3212 5.96003 14.8193 6.86585 16.2825ZM14.5304 11.7186C18.4324 11.4399 21.6723 12.7638 24.7033 14.6103C25.3305 14.9935 25.7485 14.6799 26.2014 14.3315C28.5356 12.4154 30.5563 10.2554 32.1588 7.67733C32.6118 6.94572 32.9601 6.14442 33.204 5.34314C33.657 3.8799 32.9253 2.79991 31.3923 2.66054C30.5214 2.59087 29.5808 2.55602 28.7099 2.73022C23.2053 3.91474 18.8156 7.05023 14.9485 11.0567C14.8091 11.1612 14.7743 11.3354 14.5304 11.7186ZM15.8542 23.4244C17.3524 25.7238 21.2891 28.9639 24.5988 30.3922C26.0969 31.0194 27.6994 31.5419 29.3021 31.7509C31.4969 32.0644 32.6118 30.6362 32.0543 28.4762C31.0788 24.7136 28.5704 21.9961 25.7833 19.5225C25.6092 19.3484 25.0169 19.4529 24.7382 19.5922C23.3446 20.289 21.9858 21.0902 20.5576 21.7174C19.0246 22.3794 17.4569 22.8671 15.8542 23.4244ZM21.7768 16.8051C21.8118 16.631 21.8466 16.4568 21.8813 16.2825C20.1743 15.5858 18.5019 14.8193 16.76 14.2967C15.8542 14.018 14.7394 14.018 13.7988 14.2967C13.1717 14.4709 12.4052 15.2374 12.3007 15.8296C12.1962 16.4218 12.7188 17.2928 13.2065 17.7805C13.5897 18.1987 14.3214 18.4077 14.9136 18.4425C17.3524 18.547 19.6169 17.7805 21.7768 16.8051Z" fill="#9E9E9E"/>
<path d="M122.807 21.3341C122.319 22.9018 121.831 24.4348 121.343 26.0025C121.03 26.978 120.647 27.8142 119.427 27.8489C118.138 27.8837 117.72 27.0477 117.372 26.0373C116.501 23.529 115.595 21.0206 114.759 18.5122C114.271 17.0142 115.177 15.7599 116.501 16.178C117.023 16.3522 117.581 16.9792 117.79 17.5367C118.417 19.2089 118.87 20.9509 119.462 22.9368C120.054 20.9856 120.612 19.3484 121.1 17.676C121.378 16.7354 121.866 16.1082 122.981 16.1082C124.096 16.1082 124.583 16.7005 124.862 17.676C125.35 19.3484 125.907 20.9856 126.534 22.9715C127.127 21.0206 127.579 19.3484 128.207 17.7109C128.416 17.1534 128.869 16.5264 129.391 16.2477C129.74 16.0735 130.645 16.2477 130.889 16.596C131.238 17.0837 131.412 17.8851 131.238 18.4077C130.645 20.3934 129.879 22.3793 129.182 24.3303C128.903 25.0618 128.66 25.8283 128.381 26.5599C128.067 27.396 127.475 27.8837 126.499 27.8837C125.524 27.8489 125.001 27.3264 124.723 26.4554C124.165 24.7483 123.643 23.076 123.085 21.3689C122.981 21.3341 122.876 21.3341 122.807 21.3341Z" fill="#9E9E9E"/>
<path d="M139.881 26.6297C138.452 27.8142 136.85 28.1277 135.108 27.64C133.54 27.187 132.669 26.0373 132.634 24.4348C132.599 22.7276 133.331 21.4386 135.003 21.0554C136.571 20.7071 138.208 20.7767 139.881 20.6722C139.985 19.9406 139.602 19.2439 138.557 19.1044C137.616 18.9999 136.641 19.0697 135.665 19.2089C134.48 19.3832 133.784 19.1742 133.575 18.3032C133.331 17.467 133.819 16.7355 134.968 16.5612C136.431 16.3173 137.93 16.0735 139.393 16.2477C141.797 16.4915 143.086 18.1637 143.12 20.6374C143.155 22.2399 143.12 23.8425 143.12 25.4451C143.12 26.3858 143.12 27.2915 142.04 27.64C141.065 28.0232 140.403 27.5007 139.881 26.6297ZM138.208 22.6581C136.675 22.6581 135.874 23.2154 135.839 24.1908C135.839 25.027 136.501 25.5496 137.546 25.5496C138.94 25.5845 140.055 24.7135 139.985 23.6335C139.915 22.3444 138.731 22.9716 138.208 22.6581Z" fill="#9E9E9E"/>
<path d="M160.506 23.1109C160.784 24.9574 162.56 25.7239 164.442 24.9574C164.756 24.8181 165.035 24.6439 165.314 24.4696C166.045 24.0516 166.707 24.1214 167.194 24.8181C167.648 25.4801 167.438 26.142 166.846 26.5948C165 28.0233 162.91 28.1975 160.784 27.5007C158.694 26.8038 157.439 25.2711 157.092 23.0761C156.43 18.6865 159.6 15.4116 163.815 16.1083C166.289 16.5265 168.274 19 168.17 21.4735C168.135 22.5187 167.544 23.0761 166.428 23.0761C164.477 23.1109 162.491 23.1109 160.506 23.1109ZM160.47 20.8812C161.969 20.8812 163.468 20.8812 164.965 20.8812C164.617 19.3485 163.884 18.6865 162.596 18.7213C161.411 18.7562 160.645 19.4877 160.47 20.8812Z" fill="#9E9E9E"/>
<path d="M150.294 23.7031C151.13 21.5432 151.827 19.6619 152.524 17.7805C152.628 17.5367 152.698 17.2928 152.803 17.049C153.256 16.178 153.987 15.8644 154.858 16.2476C155.729 16.6308 156.112 17.3625 155.729 18.2683C154.544 21.0902 153.325 23.9121 152.071 26.6993C151.722 27.4658 151.095 27.8838 150.19 27.849C149.284 27.8141 148.726 27.3613 148.378 26.5948C147.193 23.9121 146.009 21.1947 144.859 18.4773C144.441 17.4322 144.755 16.596 145.626 16.2128C146.532 15.8296 147.437 16.2128 147.855 17.2928C148.691 19.3135 149.423 21.3689 150.294 23.7031Z" fill="#9E9E9E"/>
<path d="M95.563 22.6929C95.6327 26.0025 98.9774 27.849 101.834 26.3161C102.148 26.142 102.426 25.8632 102.775 25.7238C103.123 25.5845 103.506 25.5845 103.89 25.5148C103.75 25.8632 103.715 26.3161 103.437 26.5252C101.66 28.0232 99.6044 28.4065 97.4792 27.5007C95.3192 26.56 94.274 24.7483 94.2393 22.4141C94.2043 20.0799 95.1102 18.1638 97.2702 17.0838C100.615 15.4463 104.621 18.1987 104.377 21.9264C104.343 22.6581 103.959 22.7626 103.332 22.7626C101.172 22.7626 98.9774 22.7626 96.8172 22.7626C96.434 22.6929 96.016 22.6929 95.563 22.6929ZM103.054 21.5781C103.123 19.2439 101.521 17.5367 99.3257 17.5715C97.2354 17.6065 95.5282 19.4529 95.6328 21.5781C98.1062 21.5781 100.58 21.5781 103.054 21.5781Z" fill="#9E9E9E"/>
<path d="M47.731 13.9136C47.731 15.9691 47.731 17.8503 47.731 19.871C50.0304 19.871 52.2601 19.8361 54.4898 19.9058C55.0472 19.9058 55.8485 19.4878 56.0227 20.4633C56.0227 20.5678 55.0124 20.951 54.455 20.9858C52.2601 21.0555 50.0653 21.0207 47.6614 21.0207C47.6614 22.6929 47.6614 24.2955 47.6614 25.8981C47.6614 26.2466 47.731 26.5949 47.6265 26.9084C47.522 27.222 47.2782 27.4658 47.0692 27.7446C46.86 27.4658 46.442 27.1871 46.442 26.8736C46.3723 24.6091 46.4072 22.3097 46.4072 20.0103C46.4072 17.9896 46.442 15.9691 46.4072 13.9484C46.4072 13.1471 46.6859 12.7987 47.522 12.7987C50.3788 12.8336 53.2008 12.7987 56.0575 12.8336C56.371 12.8336 56.6847 13.1471 57.033 13.3561C56.6847 13.5652 56.3362 13.9136 56.0227 13.9136C53.3053 13.9136 50.5531 13.9136 47.731 13.9136Z" fill="#9E9E9E"/>
<path d="M73.3016 26.4205C72.2216 26.9083 71.2461 27.64 70.1661 27.7793C67.0655 28.1974 65.219 26.56 65.1145 23.4245C65.0448 21.5084 65.0796 19.627 65.1145 17.711C65.1145 17.3974 65.428 17.049 65.6022 16.7355C65.8112 17.049 66.2293 17.3625 66.2293 17.711C66.299 19.5574 66.2642 21.3689 66.2642 23.2154C66.2642 25.4451 67.4487 26.8038 69.4694 26.8735C71.4899 26.978 73.1623 25.4451 73.2668 23.2851C73.3363 21.4386 73.2668 19.627 73.3364 17.7805C73.3364 17.4322 73.6848 17.0838 73.859 16.7355C74.0333 17.0838 74.3816 17.4322 74.3816 17.7805C74.4163 20.7071 74.4163 23.5986 74.3816 26.5252C74.3816 26.9083 74.0333 27.2915 73.859 27.6748C73.6848 27.2915 73.4758 26.9083 73.3016 26.5252C73.2668 26.4206 73.2668 26.316 73.3016 26.4205Z" fill="#9E9E9E"/>
<path d="M78.9115 18.2336C78.2495 17.8156 77.7966 17.5368 77.3438 17.2581C77.7966 17.0491 78.2495 16.8052 78.9115 16.4916C78.9115 15.8646 78.8418 15.0284 78.9463 14.1923C78.9812 13.8788 79.3295 13.6 79.5385 13.2865C79.7127 13.5652 80.0262 13.8439 80.0262 14.1575C80.096 14.9588 80.0612 15.7949 80.0612 16.8052C80.723 16.8052 81.3502 16.7356 81.9424 16.8401C82.6044 16.9446 83.4754 16.3174 83.8934 17.3626C83.2314 17.5368 82.5694 17.7458 81.9076 17.8156C81.3502 17.8851 80.7927 17.8156 80.1308 17.8156C80.1308 20.3588 80.0612 22.8323 80.1657 25.2711C80.2353 26.4556 81.1759 26.8388 82.7786 26.7343C83.1269 26.6994 83.5101 26.9084 83.8934 27.0129C83.5799 27.2569 83.3011 27.6401 82.9527 27.7446C80.6882 28.3368 78.9812 26.9781 78.9812 24.6439C78.8765 22.4142 78.9115 20.1845 78.9115 18.2336Z" fill="#9E9E9E"/>
<path d="M88.5971 16.805C89.4681 16.805 90.2693 16.7354 91.0358 16.8399C91.5235 16.9095 91.9415 17.1882 92.4293 17.3625C91.9415 17.5367 91.4886 17.7805 91.0008 17.8154C90.2693 17.8851 89.5028 17.8502 88.6666 17.8502C88.6666 20.3934 88.5971 22.867 88.7016 25.3057C88.7712 26.4902 89.7118 26.8735 91.3145 26.7689C91.6628 26.7342 92.046 26.9432 92.4293 27.0477C92.081 27.2915 91.7673 27.7096 91.3841 27.7792C89.1544 28.267 87.5169 26.978 87.5169 24.6787C87.4822 22.449 87.5169 20.2193 87.5169 18.2334C86.8551 17.8154 86.4022 17.5367 85.9492 17.2927C86.4022 17.0837 86.8551 16.8399 87.5169 16.5264C87.5169 15.934 87.4474 15.1328 87.5519 14.3315C87.5867 13.9831 87.9351 13.6696 88.1441 13.3212C88.3184 13.6347 88.6319 13.9483 88.6666 14.2967C88.6319 15.0631 88.5971 15.8644 88.5971 16.805Z" fill="#9E9E9E"/>
<path d="M108.523 19.0346C109.638 17.9198 110.683 16.9094 112.147 16.6656C112.495 16.5959 112.913 16.9791 113.296 17.1186C112.983 17.3624 112.739 17.7804 112.391 17.8501C110.022 18.4076 108.628 20.0101 108.523 22.414C108.454 23.8077 108.558 25.1662 108.489 26.5599C108.454 26.9082 108.07 27.2566 107.861 27.6399C107.687 27.2914 107.374 26.9082 107.374 26.5599C107.339 23.6334 107.339 20.7418 107.374 17.8153C107.374 17.4669 107.687 17.1186 107.896 16.7353C108.105 17.1186 108.419 17.4321 108.523 17.8501C108.593 18.2334 108.523 18.6514 108.523 19.0346Z" fill="#9E9E9E"/>
<path d="M60.3056 19.8363C60.3056 17.6066 60.2707 15.342 60.3404 13.1123C60.3404 12.7639 60.6889 12.4155 60.8979 12.0671C61.0719 12.4155 61.4204 12.7639 61.4204 13.1123C61.4552 17.6414 61.4552 22.1355 61.4204 26.6646C61.4204 26.9781 61.1069 27.2917 60.9674 27.6401C60.7584 27.3266 60.3752 26.9781 60.3752 26.6646C60.2707 24.4002 60.3056 22.1355 60.3056 19.8363Z" fill="#9E9E9E"/>
<path d="M177.33 16.3523C177.297 18.4077 175.658 20.0452 173.637 20.0452C171.547 20.0452 169.875 18.3728 169.911 16.2478C169.944 14.1574 171.687 12.4851 173.743 12.5199C175.763 12.5896 177.365 14.2619 177.33 16.3523ZM173.533 19.5225C175.415 19.5574 176.808 18.1987 176.843 16.3523C176.878 14.5406 175.38 13.0077 173.604 13.0425C171.897 13.0425 170.398 14.5755 170.363 16.2826C170.363 18.0245 171.791 19.4877 173.533 19.5225Z" fill="#9E9E9E"/>
<path d="M175.101 18.1987C174.439 17.676 173.777 17.1535 172.976 16.4915C172.871 17.2929 172.802 17.711 172.698 18.4774C172.419 18.0245 172.245 17.8503 172.209 17.6412C172.174 16.9793 172.245 16.2825 172.174 15.6206C172.036 14.5406 172.559 14.1574 173.498 14.3664C174.091 14.5058 174.857 14.7148 175.171 15.1677C175.38 15.5161 174.997 16.2477 174.788 17.049C174.857 17.1883 175.101 17.6065 175.345 18.0245C175.276 18.0593 175.205 18.129 175.101 18.1987ZM172.907 16.3175C173.533 16.1432 174.021 16.0387 174.509 15.8645C174.578 15.8296 174.578 15.3071 174.509 15.2722C174.021 15.098 173.498 14.9935 172.907 14.8542C172.907 15.4116 172.907 15.7251 172.907 16.3175Z" fill="#9E9E9E"/>
</g>
<defs>
<clipPath id="clip0">
<rect width="177.75" height="36.7759" fill="white"/>
</clipPath>
</defs>
</svg>
