<svg width="116" height="40" viewBox="0 0 116 40" fill="none" xmlns="http://www.w3.org/2000/svg">
<path d="M16.6246 0.6871C17.0956 0.731953 17.5442 0.776805 18.0151 0.844085C20.639 1.20291 22.9713 2.25696 24.9897 3.96138C25.214 4.16322 25.4382 4.36506 25.685 4.56688C25.7971 4.65659 25.7971 4.74631 25.7074 4.85844C24.8551 5.71064 24.003 6.54042 23.1731 7.39263C23.0162 7.54962 22.9265 7.45991 22.8144 7.34778C21.5136 6.1816 20.0335 5.32939 18.3291 4.97056C14.9202 4.2305 11.8029 4.90328 9.11174 7.19079C7.07094 8.91764 5.92718 11.1379 5.56836 13.7842C5.27681 15.982 5.59078 18.1125 6.6224 20.0861C8.34925 23.4052 11.1077 25.3115 14.853 25.7151C16.9162 25.9394 18.9345 25.6479 20.796 24.6834C23.3975 23.338 24.9225 21.2298 25.3261 18.3143C25.371 18.0228 25.3261 17.9779 24.9897 17.9779C22.3883 18.0004 19.7868 18.0004 17.1853 18.0228C16.8489 18.0228 16.5125 18.0228 16.1761 18.0228C15.9518 18.0228 15.8622 17.9556 15.8622 17.7089C15.8622 16.5651 15.8622 15.4213 15.8622 14.2552C15.8622 14.0533 15.9294 13.9636 16.1312 13.986C16.1537 13.986 16.1761 13.986 16.1986 13.986C20.4596 13.986 24.7207 13.986 28.9817 13.986C29.2283 13.986 29.3406 14.0533 29.3629 14.3C29.7891 18.0901 29.2732 21.656 26.8735 24.7508C24.8103 27.4195 22.0295 29.0118 18.6879 29.5725C16.1312 29.9986 13.5971 29.8417 11.1301 28.9894C8.43896 28.0474 6.1963 26.4777 4.40217 24.2798C2.6529 22.1493 1.62128 19.7273 1.24003 16.9912C1.17275 16.5426 1.15032 16.0941 1.10547 15.6456C1.10547 15.3541 1.10547 15.0625 1.10547 14.7934C1.1279 14.7037 1.15032 14.6139 1.15032 14.5243C1.2176 12.5956 1.71098 10.7566 2.56319 9.02977C3.46026 7.19079 4.69372 5.62093 6.24115 4.27535C8.3044 2.50365 10.6816 1.38232 13.3503 0.888939C13.9559 0.776806 14.5614 0.75438 15.1669 0.664673C15.6379 0.6871 16.1312 0.6871 16.6246 0.6871Z" fill="#9E9E9E"/>
<path d="M89.5546 20.1534C89.5546 22.7101 89.5546 25.2891 89.5546 27.8457C89.5546 28.9895 89.5098 30.1107 89.2856 31.2322C88.7249 33.9457 87.4018 36.0987 84.8003 37.3097C83.7686 37.8031 82.6473 38.0274 81.5035 38.1395C80.0907 38.2516 78.7227 38.1171 77.422 37.6013C75.112 36.7042 73.4749 35.1119 72.4209 32.8693C72.3311 32.6899 72.376 32.6001 72.5554 32.5104C73.587 32.0843 74.6186 31.6582 75.6503 31.2097C75.8969 31.0976 75.9642 31.2097 76.0539 31.4115C76.6146 32.5778 77.4668 33.4747 78.6554 34.013C80.2253 34.7531 82.9613 34.5288 84.3069 32.9814C85.0245 32.1516 85.3609 31.1648 85.518 30.0884C85.6301 29.3707 85.5852 28.6307 85.5852 27.913C85.5852 27.8233 85.6076 27.7336 85.4955 27.6887C85.4057 27.6663 85.3609 27.7559 85.316 27.8008C84.2396 28.9671 82.8716 29.595 81.3242 29.7071C77.3995 29.9763 74.5737 28.1597 72.645 24.8181C71.9499 23.6071 71.6135 22.2615 71.5686 20.871C71.4565 18.2471 72.2863 15.9597 74.0355 14.0085C75.426 12.4611 77.1304 11.4743 79.1712 11.1379C81.0999 10.8015 82.894 11.1155 84.5311 12.2593C84.8003 12.4611 85.047 12.6629 85.2937 12.9096C85.3609 12.977 85.4058 13.1339 85.5403 13.0666C85.6524 13.0217 85.5852 12.8872 85.6076 12.775C85.6076 12.506 85.6076 12.2368 85.6076 11.9678C85.6076 11.5865 85.6077 11.564 85.9888 11.564C87.0429 11.564 88.1194 11.564 89.1734 11.564C89.5323 11.564 89.5546 11.5865 89.5771 11.9453C89.5771 13.717 89.5771 15.4662 89.5771 17.2379C89.5546 18.2248 89.5546 19.1891 89.5546 20.1534ZM75.7175 20.4674C75.74 22.0821 76.2782 23.5398 77.4892 24.706C79.6422 26.7916 83.1632 26.4552 84.8452 23.9883C85.8095 22.5755 86.0562 21.0056 85.8095 19.3236C85.5852 17.8659 84.9573 16.6324 83.7686 15.7354C81.8399 14.2777 79.1712 14.4795 77.4444 16.1839C76.2557 17.35 75.74 18.7854 75.7175 20.4674Z" fill="#9E9E9E"/>
<path d="M31.0204 20.4002C30.9755 15.2869 34.9226 11.0259 40.4171 11.0259C46.0013 11.0259 49.8586 15.3542 49.8363 20.4451C49.8138 25.6032 45.7995 29.7969 40.3946 29.7969C35.0347 29.7969 30.953 25.5807 31.0204 20.4002ZM45.6873 20.4451C45.6649 18.6285 45.0593 17.1034 43.6688 15.9148C41.6281 14.1881 38.3089 14.4571 36.6046 16.498C34.9449 18.4715 34.7208 21.3646 36.0439 23.5848C37.6361 26.2086 41.1347 26.8814 43.5344 25.0201C45.0145 23.8538 45.6424 22.284 45.6873 20.4451Z" fill="#9E9E9E"/>
<path d="M51.2938 20.4225C51.2266 15.3541 55.1512 11.0482 60.6905 11.0482C66.2524 11.0482 70.1097 15.3541 70.1097 20.445C70.0872 25.5806 66.0953 29.8192 60.6682 29.7968C55.2858 29.7743 51.2266 25.5806 51.2938 20.4225ZM55.4427 20.445C55.4427 21.7009 55.7791 22.867 56.4968 23.8986C58.3134 26.4777 62.0361 26.8365 64.2788 24.5939C66.2075 22.6652 66.5214 19.2563 64.9291 17.0136C63.0005 14.2777 59.2103 13.9637 56.9229 16.3857C55.8912 17.5295 55.4427 18.8975 55.4427 20.445Z" fill="#9E9E9E"/>
<path d="M107.091 29.8192C104.534 29.7743 102.337 28.9894 100.543 27.285C99.0175 25.8272 98.098 24.0331 97.7841 21.9475C97.47 19.7945 97.7392 17.7312 98.7484 15.7802C100.139 13.1114 102.337 11.5191 105.342 11.1154C108.145 10.7342 110.545 11.564 112.496 13.6272C113.393 14.5915 114.066 15.6905 114.559 16.924C114.671 17.193 114.783 17.4622 114.873 17.7312C115.008 18.0901 115.008 18.0901 114.671 18.2247C113.46 18.7181 112.249 19.2338 111.038 19.7273C108.28 20.8709 105.544 22.0147 102.785 23.1361C102.561 23.2257 102.516 23.2931 102.628 23.5173C103.749 25.5133 105.544 26.231 107.652 26.0067C109.244 25.8497 110.433 25.0199 111.375 23.7641C111.621 23.45 111.621 23.45 111.935 23.6519C112.81 24.2349 113.684 24.818 114.559 25.4012C114.783 25.5357 114.806 25.6479 114.649 25.8721C113.012 28.0699 110.859 29.393 108.123 29.7071C107.719 29.7968 107.36 29.8416 107.091 29.8192ZM106.71 14.7261C106.575 14.7261 106.441 14.7036 106.306 14.7261C103.772 14.9952 101.798 17.2379 101.798 19.7945C101.798 20.1085 101.821 20.1085 102.112 19.9739C104.647 18.9199 107.203 17.8658 109.737 16.8118C110.119 16.6548 110.141 16.6323 109.894 16.2735C109.872 16.2512 109.872 16.2287 109.849 16.2063C109.087 15.1298 107.966 14.771 106.71 14.7261Z" fill="#9E9E9E"/>
<path d="M91.9102 15.511C91.9102 11.093 91.9102 6.675 91.9102 2.25697C91.9102 1.78601 91.9102 1.78601 92.381 1.78601C93.4576 1.78601 94.534 1.78601 95.5881 1.78601C95.9693 1.78601 95.9917 1.78601 95.9917 2.16726C95.9917 11.0706 95.9917 19.974 95.9917 28.8997C95.9917 29.2586 95.9693 29.2586 95.6104 29.2586C94.5116 29.2586 93.4127 29.2586 92.3138 29.2586C91.9325 29.2586 91.9102 29.2586 91.9102 28.8548C91.9102 24.392 91.9102 19.9515 91.9102 15.511Z" fill="#9E9E9E"/>
</svg>
