<svg width="35" height="35" viewBox="0 0 35 35" fill="none" xmlns="http://www.w3.org/2000/svg">
<path d="M26.5852 29.0299L32.4447 34.2285L32.4737 34.2476C32.7202 34.4107 32.9813 34.497 33.2496 34.497C33.5614 34.497 33.8733 34.3819 34.1488 34.1613C34.6637 33.7489 34.9683 33.0199 34.9683 32.2239C34.9683 31.3798 34.6202 30.6221 34.0691 30.2289L26.3749 23.4382H14.7285L13.1549 18.5754H17.1796C17.8105 18.5754 18.3254 17.8944 18.3254 17.0599V16.1775C18.3254 15.3431 17.8105 14.6621 17.1796 14.6621H11.9946C11.9656 14.5566 11.9076 14.4511 11.8351 14.3744C11.3637 13.8756 10.8706 13.233 10.3992 12.6191C9.9351 12.0149 9.45648 11.3914 8.97061 10.8639C9.92785 10.0295 10.566 8.60036 10.566 6.96983C10.566 4.39935 8.98512 2.31802 7.04889 2.31802C5.11266 2.31802 3.53177 4.39935 3.53177 6.96983C3.53177 7.26716 3.55353 7.54531 3.58979 7.83305H0.40625V33.8544H26.5852V29.0299ZM17.3174 16.1775V17.0503C17.3174 17.1463 17.2594 17.223 17.1869 17.223H11.632C11.5595 17.223 11.5015 17.1463 11.5015 17.0503V16.1775C11.5015 16.0816 11.5595 16.0049 11.632 16.0049H17.1796C17.2522 16.0049 17.3174 16.0816 17.3174 16.1775ZM8.25269 11.8135C8.72405 12.3122 9.21718 12.9548 9.68854 13.5687C10.0729 14.0674 10.4645 14.5854 10.8633 15.0362C10.624 15.3143 10.4717 15.7171 10.4717 16.1775V17.0503C10.4717 17.8848 10.9866 18.5658 11.6175 18.5658H12.0599C12.0671 18.6137 12.0744 18.6521 12.0889 18.7001L14.0541 24.7714H26.0558L33.5179 31.3606L33.5687 31.399C33.8007 31.5621 33.9458 31.8786 33.9458 32.2239C33.9458 32.55 33.8225 32.8473 33.6122 33.0199C33.4091 33.183 33.1698 33.2022 32.9523 33.0775L26.2806 27.1596H12.379L7.91185 11.4778C7.96262 11.4586 8.01338 11.4394 8.06414 11.4202C8.09315 11.5737 8.15116 11.708 8.25269 11.8135ZM7.04889 3.65122C8.42673 3.65122 9.55076 5.13788 9.55076 6.96024C9.55076 8.7826 8.42673 10.2693 7.04889 10.2693C5.67105 10.2693 4.54702 8.7826 4.54702 6.96024C4.54702 5.13788 5.67105 3.65122 7.04889 3.65122ZM25.57 32.5116H1.4215V9.16625H3.94512C3.94512 9.16625 3.94512 9.16625 3.95238 9.16625C4.52527 10.5762 5.62754 11.5449 6.90385 11.612C6.90385 11.6888 6.91111 11.7751 6.93286 11.8614L11.6755 28.4928H25.5772C25.57 28.5312 25.57 28.5696 25.57 28.6175V32.5116Z" fill="#E8E6F2"/>
<path d="M20.9788 20.8772H29.2821C30.1305 20.8772 30.8195 19.9661 30.8195 18.8439V12.2355C30.8195 11.1133 30.1305 10.2021 29.2821 10.2021H28.0783V9.80886C28.0783 8.76341 27.4329 7.91937 26.6424 7.91937H24.1188C23.3284 7.91937 22.683 8.773 22.683 9.80886V10.2021H20.9788C20.1303 10.2021 19.4414 11.1133 19.4414 12.2355V18.8439C19.4414 19.9565 20.1303 20.8772 20.9788 20.8772ZM29.2821 19.5345H20.9788C20.6887 19.5345 20.4567 19.2275 20.4567 18.8439V15.2663H23.4516V16.331H26.773V15.2663H29.8115V18.8439C29.8115 19.2179 29.5722 19.5345 29.2821 19.5345ZM24.4669 14.9882V14.3935H25.7577V14.9882H24.4669ZM23.691 9.79927C23.691 9.49235 23.8795 9.25257 24.1116 9.25257H26.6352C26.8672 9.25257 27.0558 9.50194 27.0558 9.79927V10.1925H23.6837V9.79927H23.691ZM20.9788 11.5353H29.2821C29.5722 11.5353 29.8042 11.8422 29.8042 12.2259V13.9139H26.7657V13.0507H23.4444V13.9139H20.4494V12.2259C20.4567 11.8518 20.6887 11.5353 20.9788 11.5353Z" fill="#E8E6F2"/>
<path d="M13.7656 0.927246C12.9026 0.927246 12.1992 1.85761 12.1992 2.99898V7.7659C12.1992 8.90727 12.9026 9.83764 13.7656 9.83764H17.1159C17.9789 9.83764 18.6823 8.90727 18.6823 7.7659V2.99898C18.6823 1.85761 17.9789 0.927246 17.1159 0.927246H13.7656ZM17.6598 2.99898V7.7659C17.6598 8.16874 17.4133 8.49484 17.1087 8.49484H13.7584C13.4538 8.49484 13.2072 8.16874 13.2072 7.7659V2.99898C13.2072 2.59615 13.4538 2.27004 13.7584 2.27004H17.1087C17.4133 2.27004 17.6598 2.59615 17.6598 2.99898Z" fill="#E8E6F2"/>
</svg>
