<svg width="35" height="50" viewBox="0 0 35 50" fill="none" xmlns="http://www.w3.org/2000/svg">
<path d="M17.9882 1.10999C15.869 1.10998 14.1559 1.61626 12.9247 2.43448C11.6934 3.25271 10.8992 4.44108 10.8992 5.77611C10.8992 7.37062 11.2867 8.75298 11.6166 10.0534C11.2707 10.1189 11.1205 10.3567 10.9731 10.588C10.7331 11.4172 10.867 12.2897 11.1735 13.0548C11.3973 13.6135 11.7219 14.1279 12.1229 14.5494L12.2495 18.2191C12.2492 18.6079 12.5551 19.1836 12.8086 19.5071C13.4693 20.3186 14.2075 20.9727 14.95 21.585L14.9497 22.4964C14.7135 22.347 14.5293 22.5068 14.3067 22.5814C11.8087 23.9988 9.35444 25.5216 6.84852 26.9195C5.83574 27.5513 5.00114 28.7164 4.7809 29.8115C4.47428 32.5205 4.14309 35.241 3.82094 37.9529C3.77348 38.3871 4.10559 38.8243 4.48552 38.8278H30.8159C31.1954 38.8317 31.5325 38.3996 31.491 37.965C31.1448 35.224 31.0055 32.409 30.6155 29.6899C30.2308 28.3605 29.4278 27.3954 28.4635 26.9559C25.9699 25.508 23.4834 24.0413 20.9948 22.5814C20.9005 22.526 20.7947 22.4966 20.6889 22.4964V21.585C21.4637 20.9282 22.2145 20.2889 22.8303 19.5071C23.0953 19.1679 23.3578 18.8753 23.3789 18.2798H23.3893V18.2191L23.6319 14.7681C24.1365 14.3109 24.5388 13.7139 24.8029 13.0548C25.1094 12.2897 25.2433 11.4172 25.0033 10.588C24.7528 10.1459 24.5338 10.05 24.1594 10.0898C24.5893 8.96354 25.0772 7.73748 25.0772 6.16491C25.0772 4.69594 24.3131 3.37434 23.0729 2.49519C21.3196 1.54585 20.0128 1.10995 17.9881 1.10999H17.9882ZM17.9882 2.66536C19.9198 2.66536 21.4015 3.14351 22.3555 3.81974C23.3095 4.49597 23.7269 5.30086 23.7269 6.16495C23.7269 6.70566 23.6394 7.21213 23.5053 7.70818C21.7558 6.74822 19.8601 6.35938 17.9777 6.40798C16.0785 6.45701 14.191 6.94698 12.4711 7.72033C12.3377 7.07519 12.2495 6.43125 12.2495 5.77611C12.2495 5.16692 12.6368 4.42322 13.5998 3.78329C14.5627 3.14335 16.0566 2.66536 17.9882 2.66536ZM17.9986 7.97551C19.6128 7.9326 21.2039 8.2491 22.6719 8.99622C22.3757 11.9976 22.2632 14.9107 22.0389 18.1097C22.0261 18.082 21.977 18.2713 21.8279 18.4621C21.0242 19.4133 20.0846 20.1943 19.1274 20.941C18.2564 20.9558 17.3909 20.9449 16.5113 20.941C15.5 20.1188 14.6451 19.4508 13.8107 18.4621C13.6616 18.2713 13.6125 18.082 13.5997 18.1097L13.2832 9.06913C14.7839 8.43539 16.39 8.01826 17.9986 7.97551ZM16.6378 10.4422L14.2749 10.8311V11.6088L16.9754 11.2199L16.6378 10.4422ZM19.3384 10.4422L19.0008 11.2199L21.7014 11.6088V10.8311L19.3384 10.4422ZM16.3003 22.4964C17.3004 22.4964 18.2969 22.5201 19.3384 22.4964V24.4406C18.6026 25.3647 17.9881 26.3848 17.6512 26.9924C17.3131 26.3848 16.8338 25.2549 16.3004 24.4406C16.3006 23.7926 16.3004 23.1441 16.3004 22.4964H16.3003ZM13.5153 24.7808C13.421 25.7253 13.3727 26.7161 13.5786 27.5878C13.7309 28.1671 14.1228 28.7049 14.6124 28.7179C14.9922 28.7179 15.0805 28.5626 15.1926 28.4627C15.5721 28.0946 15.9169 27.6388 16.2686 27.2718L17.0493 29.0703C17.1617 29.3239 17.4033 29.4942 17.6505 29.4942C17.8978 29.4942 18.1394 29.3239 18.2518 29.0703L19.0325 27.2718C19.4285 27.6636 19.7496 28.1023 20.1085 28.4627C20.2205 28.5626 20.3089 28.7179 20.6887 28.7179C21.298 28.6216 21.5401 28.15 21.7225 27.5878C21.9219 26.6223 21.8833 25.7046 21.7858 24.793C23.8406 25.961 25.8682 27.2314 27.9253 28.3776C28.516 28.6282 29.0234 29.1982 29.3072 30.1396L29.6026 32.9951H25.7522C25.3766 32.9912 25.0419 33.415 25.0771 33.8457L25.3619 37.2724H9.93919L10.224 33.8457C10.2592 33.415 9.9245 32.9933 9.54889 32.9951H5.76178L6.09936 30.1396C6.34758 29.3264 6.83164 28.6171 7.40742 28.3412C9.4424 27.1667 11.4813 25.9687 13.5153 24.7808V24.7808ZM5.58245 34.5505H8.79989L8.57837 37.2724H5.25544L5.58245 34.5505ZM26.5012 34.5505H29.7608L30.0456 37.2724H26.7227L26.5012 34.5505Z" fill="#301446"/>
</svg>
