<svg width="129" height="39" viewBox="0 0 129 39" fill="none" xmlns="http://www.w3.org/2000/svg">
<path d="M1.17969 36.7633V10.8756H5.26982V36.7633H1.17969ZM26.6433 36.7633H22.5033V17.2852C22.5033 16.9859 22.4534 16.6617 22.3786 16.3126C22.2789 15.9385 22.0793 15.5892 21.8299 15.3149C21.5307 14.9907 21.1315 14.7413 20.5829 14.5168C20.0591 14.2924 19.3359 14.1926 18.463 14.1926C17.5652 14.1926 16.817 14.2924 16.2434 14.5168C15.6697 14.7413 15.2457 14.9907 14.9215 15.29C14.6472 15.5394 14.4228 15.8886 14.323 16.2627C14.2232 16.6118 14.1733 16.9111 14.1733 17.1854V36.7633H10.0333V16.4871C10.0333 16.0881 10.1082 15.5644 10.2329 14.8909C10.3576 14.2425 10.7067 13.5691 11.2803 12.8958C11.854 12.2473 12.677 11.6737 13.7992 11.1749C14.8966 10.7011 16.4179 10.4517 18.3882 10.4517C20.3585 10.4517 21.8549 10.7011 22.9772 11.1749C24.0745 11.6488 24.9224 12.2224 25.4711 12.8958C26.0199 13.5442 26.3689 14.2176 26.4936 14.9159C26.6184 15.6143 26.6932 16.113 26.6932 16.4871L26.6433 36.7633ZM42.8791 33.0472V36.7633C40.9338 36.7633 39.4126 36.5138 38.2903 36.04C37.1928 35.5661 36.3449 34.9926 35.7713 34.3191C35.1977 33.6707 34.8485 32.9973 34.7238 32.324C34.5991 31.6505 34.5242 31.1268 34.5242 30.7527V13.9931H31.4068V10.4766H34.5242V3.89247H38.6644V10.4766H42.8542V13.9931H38.6644V29.9048C38.6644 30.204 38.7142 30.5282 38.789 30.8775C38.8638 31.2265 39.0633 31.5758 39.3377 31.9C39.637 32.2242 40.036 32.4985 40.5847 32.7229C41.1084 32.9474 41.8317 33.0472 42.7046 33.0472H42.8791ZM54.6009 10.4766C56.5463 10.4766 58.0675 10.726 59.1898 11.1998C60.3121 11.6737 61.1102 12.2473 61.6839 12.9207C62.2325 13.5691 62.5816 14.2425 62.7064 14.9408C62.8311 15.6143 62.9058 16.1379 62.9058 16.512V18.8814C62.9058 19.4549 62.8062 20.0784 62.5816 20.7768C62.3822 21.4751 61.8833 22.2233 61.0852 22.9965C60.761 23.3706 60.337 23.6948 59.8633 23.8942C59.4642 24.0689 59.0652 24.2184 58.6412 24.3432C58.2172 24.4679 57.7682 24.5426 57.3193 24.5426H53.6282C52.7802 24.5426 52.032 24.8668 51.3836 25.4904C50.7352 26.1139 50.411 26.887 50.411 27.8098V30.0295C50.411 30.8276 50.5607 31.451 50.8599 31.9249C50.9846 32.1493 51.1343 32.3488 51.3089 32.5234C51.4834 32.6981 51.7078 32.8476 52.032 32.9724C52.2815 33.097 52.6307 33.2217 53.0297 33.3215C53.4287 33.4213 53.9524 33.4711 54.6009 33.4711C55.4488 33.4711 56.1223 33.3714 56.5961 33.1968C57.0949 33.0223 57.4191 32.8476 57.6187 32.7229C58.0427 32.3987 58.3419 31.9998 58.4915 31.5259C58.6412 31.052 58.741 30.5781 58.741 30.0295H62.8809V31.2265C62.8809 32.1244 62.7064 32.9474 62.3323 33.6956C61.9582 34.4688 61.3845 35.1172 60.6115 35.6909C60.0627 36.0898 59.2896 36.4391 58.317 36.7383C57.3443 37.0376 56.0973 37.1873 54.6259 37.1873C53.5284 37.1873 52.5558 37.0875 51.7577 36.9128C51.0345 36.7633 50.3112 36.5138 49.6379 36.2145C49.0891 35.9652 48.5904 35.641 48.1415 35.2419C47.7923 34.9177 47.4432 34.5436 47.1689 34.1446C46.5952 33.2966 46.3209 32.299 46.3458 31.1767V16.4871C46.3458 16.0881 46.4207 15.5644 46.5453 14.8909C46.67 14.2425 47.0192 13.5691 47.5679 12.8958C48.1165 12.2473 48.9396 11.6737 50.0619 11.1749C51.1842 10.6761 52.6556 10.4766 54.6009 10.4766ZM58.741 17.7092V17.2602C58.741 16.961 58.6911 16.6368 58.6162 16.2876C58.5164 15.9135 58.317 15.5644 58.0675 15.29C57.7682 14.9658 57.3692 14.7164 56.8206 14.492C56.2968 14.2675 55.5736 14.1677 54.7006 14.1677C53.8028 14.1677 53.0546 14.2675 52.481 14.492C51.9074 14.7164 51.4834 14.9658 51.1592 15.265C50.8849 15.5145 50.6604 15.8636 50.5607 16.2377C50.4609 16.5869 50.411 16.8861 50.411 17.1605V22.323C50.4858 22.0237 50.6105 21.7744 50.8599 21.5997C51.0844 21.4252 51.3587 21.2755 51.6331 21.1759C51.9323 21.0761 52.2067 21.0012 52.5059 20.9763C52.8053 20.9513 53.0297 20.9264 53.1794 20.9264H55.9476C56.6958 20.9264 57.3443 20.6521 57.893 20.1035C58.4416 19.5547 58.716 18.9063 58.716 18.1581V17.7092H58.741ZM68.0434 36.7633V0.799927H72.1337V36.7383H68.0434V36.7633ZM77.4957 36.7633V10.8756H81.5858V36.7633H77.4957ZM94.6294 10.4766C97.4974 10.4766 99.5924 11.0502 100.914 12.1975C102.236 13.3446 102.909 14.7663 102.909 16.4871V31.1767C102.909 31.7752 102.81 32.4237 102.585 33.1469C102.386 33.8703 101.962 34.5187 101.338 35.1172C100.715 35.7157 99.8668 36.2145 98.7944 36.6136C97.722 37.0126 96.3252 37.2121 94.6044 37.2121C92.8836 37.2121 91.487 37.0126 90.4145 36.6136C89.3421 36.2145 88.4942 35.7157 87.8707 35.1172C87.2472 34.5187 86.8481 33.8703 86.6237 33.1719C86.4242 32.4486 86.2994 31.8002 86.2994 31.2017V28.8822C86.2994 27.6352 86.6237 26.488 87.2472 25.4655C87.8708 24.443 88.7935 23.7197 89.9407 23.2957C90.5143 23.0961 91.1876 22.8717 91.9358 22.5974L94.1057 21.8243C94.804 21.5748 95.4025 21.3504 95.9263 21.1509C96.2505 21.0262 96.5747 20.9014 96.8989 20.8018C97.0237 20.7269 97.1982 20.6521 97.4227 20.5273C97.6222 20.4027 97.8467 20.2281 98.0212 20.0037C98.2208 19.7791 98.3953 19.5048 98.545 19.2056C98.6946 18.9063 98.7694 18.5572 98.7694 18.1581V17.2103C98.7694 16.8861 98.6946 16.537 98.5699 16.1878C98.4203 15.8137 98.1957 15.4895 97.8965 15.2151C97.5723 14.9159 97.1483 14.6665 96.5997 14.492C96.0759 14.3173 95.3776 14.2176 94.5795 14.2176C92.9585 14.2176 91.8611 14.5667 91.2874 15.2402C90.7139 15.9135 90.4396 16.7366 90.4396 17.6842H86.2994V16.4871C86.2994 15.6641 86.4491 14.8909 86.7733 14.1677C87.0727 13.4444 87.5714 12.796 88.2697 12.2473C88.9432 11.6986 89.816 11.2747 90.8634 10.9505C91.936 10.6262 93.1829 10.4766 94.6294 10.4766ZM98.8193 23.6199C98.7694 23.9192 98.5949 24.1935 98.3205 24.3681C98.0711 24.5426 97.8216 24.6424 97.5972 24.7173C97.0984 24.8919 96.5747 25.0664 96.026 25.2908C95.4524 25.5154 94.9286 25.6899 94.4549 25.8645C93.9061 26.064 93.3575 26.2386 92.8088 26.463C92.4097 26.6377 92.0356 26.8621 91.6865 27.1613C91.3623 27.4607 91.088 27.8098 90.8884 28.1839C90.639 28.6078 90.5143 29.1067 90.5143 29.7552C90.5143 31.0021 90.8137 31.9499 91.3872 32.5484C91.9608 33.1719 93.0581 33.4711 94.6543 33.4711C96.2755 33.4711 97.3728 33.1469 97.9713 32.4985C98.545 31.8501 98.8443 30.9273 98.8443 29.7552C98.8193 29.7053 98.8193 23.6199 98.8193 23.6199Z" fill="#9E9E9E"/>
<path d="M122.335 29.2814C120.863 29.2814 119.491 28.6578 118.444 27.5605L111.062 19.6297C108.917 17.3352 108.917 13.5942 111.062 11.2997C112.109 10.1774 113.481 9.57886 114.952 9.57886C116.424 9.57886 117.796 10.2024 118.843 11.2997L126.225 19.2306C128.37 21.5251 128.37 25.2661 126.225 27.5605C125.178 28.6828 123.806 29.2814 122.335 29.2814ZM111.984 12.1227L112.882 12.9457C111.61 14.2925 111.61 16.587 112.882 17.9586L120.265 25.8895C121.412 27.1115 123.307 27.1115 124.454 25.8895C125.726 24.5427 125.726 22.2484 124.454 20.8766L117.072 12.9457C116.499 12.3472 115.75 11.998 114.977 11.998C114.204 11.998 113.456 12.3223 112.882 12.9457L111.984 12.1227Z" fill="#9E9E9E"/>
<path d="M114.952 37.1625C113.481 37.1625 112.109 36.5389 111.062 35.4416C108.917 33.1472 108.917 29.4061 111.062 27.1117L118.444 19.1808C119.491 18.0585 120.863 17.46 122.335 17.46C123.806 17.46 125.178 18.0835 126.225 19.1808C128.37 21.4753 128.37 25.2163 126.225 27.5108L118.843 35.4416C117.796 36.5389 116.424 37.1625 114.952 37.1625ZM112.882 33.7707C113.456 34.3692 114.179 34.7183 114.977 34.7183C115.75 34.7183 116.499 34.3692 117.072 33.7707L124.454 25.8397C125.726 24.493 125.726 22.1985 124.454 20.8269C123.881 20.2033 123.133 19.8791 122.36 19.8791C121.586 19.8791 120.838 20.2283 120.265 20.8269L112.882 28.7577C111.61 30.1045 111.61 32.3989 112.882 33.7707Z" fill="#9E9E9E"/>
</svg>
