<svg width="172" height="34" viewBox="0 0 172 34" fill="none" xmlns="http://www.w3.org/2000/svg">
<g clip-path="url(#clip0)">
<path d="M0.404703 10.1965C0.505531 10.1293 0.539141 9.99482 0.572751 9.86039C0.774408 9.42346 1.1105 9.08736 1.54742 8.91931C1.71547 8.8521 1.88352 8.81848 2.08519 8.81848C2.21962 8.81848 2.32045 8.81848 2.45488 8.81848C12.1008 8.81848 21.7468 8.81848 31.3927 8.81848C31.5944 8.81848 31.796 8.81848 31.9641 8.8521C32.7708 8.98653 33.3421 9.65873 33.4429 10.499C33.4429 10.5662 33.4429 10.6334 33.4429 10.7006C33.4429 11.6753 33.4429 12.6164 33.4429 13.591C33.4429 13.9608 33.3757 14.3305 33.1405 14.6666C32.8043 15.1707 32.3338 15.4396 31.6952 15.4732C31.5944 15.4732 31.46 15.4732 31.3592 15.4732C21.7468 15.4732 12.1344 15.4732 2.4885 15.4732C2.38767 15.4732 2.25323 15.4732 2.1524 15.4732C1.41299 15.4396 0.908847 15.1035 0.572751 14.4313C0.505531 14.2969 0.505531 14.1624 0.371094 14.0616C0.404702 12.7508 0.404703 11.4736 0.404703 10.1965Z" fill="#9E9E9E"/>
<path d="M0.40625 18.8006C0.507078 18.7334 0.540687 18.599 0.574297 18.4982C0.708736 18.1956 0.876783 17.9604 1.14566 17.7588C1.44815 17.5234 1.78424 17.4226 2.15395 17.389C2.25478 17.389 2.38922 17.389 2.49005 17.389C11.5646 17.389 20.6055 17.389 29.6801 17.389C29.8482 17.389 30.0498 17.389 30.2179 17.4226C31.0917 17.557 31.6632 18.2293 31.7303 19.1366C31.7303 19.2039 31.7303 19.2375 31.7303 19.3047C31.7303 20.2795 31.7303 21.2205 31.7303 22.1952C31.7303 22.6321 31.596 23.069 31.2935 23.4051C30.9573 23.8084 30.5541 24.01 30.0498 24.0437C29.9155 24.0437 29.7809 24.0437 29.6466 24.0437C20.572 24.0437 11.531 24.0437 2.45643 24.0437C2.3556 24.0437 2.25478 24.0437 2.15395 24.0437C1.41454 24.01 0.876783 23.6403 0.574297 22.9681C0.507078 22.8673 0.507078 22.733 0.40625 22.6321C0.40625 21.3549 0.40625 20.0777 0.40625 18.8006Z" fill="#9E9E9E"/>
<path d="M30.4172 0.248046C30.4845 0.281655 30.5516 0.315264 30.6189 0.348873C31.3247 0.684969 31.6945 1.22272 31.728 1.99574C31.728 2.23101 31.728 2.46628 31.728 2.70154C31.728 3.40734 31.728 4.14675 31.728 4.85256C31.728 5.02061 31.728 5.22226 31.6608 5.39031C31.4927 6.23055 30.787 6.80191 29.9467 6.80191C29.8459 6.80191 29.7114 6.80191 29.6106 6.80191C20.5697 6.80191 11.5287 6.80191 2.52129 6.80191C2.42046 6.80191 2.31964 6.80191 2.21881 6.80191C1.44579 6.7683 0.908033 6.4322 0.605547 5.7264C0.538328 5.62557 0.538328 5.49114 0.4375 5.39031C0.4375 4.11315 0.4375 2.83599 0.4375 1.55882C0.538328 1.4916 0.571938 1.35716 0.605547 1.22272C0.807204 0.7858 1.10969 0.483312 1.513 0.281655C1.61383 0.248046 1.71466 0.180826 1.78188 0.147217C11.327 0.248046 20.8721 0.248046 30.4172 0.248046Z" fill="#9E9E9E"/>
<path d="M171.076 23.5394C170.941 23.8755 170.672 24.0099 170.335 24.0436C170.269 24.0436 170.168 24.0436 170.1 24.0436C169.058 24.0436 167.983 24.0436 166.941 24.0436C166.875 24.0436 166.773 24.0436 166.706 24.0436C166.336 24.0099 166.033 23.8755 165.832 23.5731C165.764 23.4723 165.698 23.3715 165.63 23.3042C164.824 22.0942 164.017 20.8843 163.21 19.6743C162.908 19.2374 162.605 18.7668 162.336 18.33C162.302 18.2627 162.236 18.1955 162.169 18.0947C162.135 18.0274 162.067 17.9938 162.001 17.9938C161.832 17.9603 161.631 17.9603 161.463 17.9938C161.362 17.9938 161.328 18.0611 161.294 18.1619C161.294 18.2627 161.294 18.3971 161.294 18.4979C161.294 19.9768 161.294 21.4221 161.294 22.9008C161.294 23.0353 161.294 23.1697 161.294 23.2705C161.228 23.741 160.959 24.0436 160.454 24.0436C160.051 24.0436 159.615 24.0436 159.211 24.0436C158.605 24.0436 158.001 24.0436 157.396 24.0436C157.195 24.0436 156.992 24.0099 156.824 23.8755C156.623 23.7075 156.522 23.5058 156.488 23.2705C156.488 23.1697 156.488 23.0353 156.488 22.9345C156.488 16.4814 156.488 9.99478 156.488 3.54173C156.488 3.44091 156.488 3.30646 156.488 3.20564C156.522 2.76871 156.858 2.46623 157.295 2.43262C157.362 2.43262 157.462 2.43262 157.53 2.43262C158.438 2.43262 159.346 2.43262 160.253 2.43262C160.32 2.43262 160.42 2.43262 160.488 2.43262C160.925 2.46623 161.194 2.7351 161.262 3.17203C161.294 3.30646 161.294 3.44091 161.294 3.57534C161.294 5.49109 161.294 7.40683 161.294 9.32258C161.294 10.7342 161.294 12.1458 161.294 13.5574C161.294 13.6582 161.294 13.7927 161.294 13.8935C161.294 13.9943 161.362 14.0615 161.463 14.0615C161.497 14.0615 161.563 14.0615 161.597 14.0615C162.001 14.0615 162.001 14.0615 162.236 13.7591C163.075 12.5827 163.917 11.4064 164.756 10.2636C164.959 9.99478 165.16 9.7259 165.361 9.42342C165.597 9.08732 165.899 8.95287 166.302 8.91927C166.37 8.91927 166.471 8.91927 166.537 8.91927C167.546 8.91927 168.521 8.91927 169.529 8.91927C169.664 8.91927 169.831 8.91927 169.966 8.95287C170.303 9.0537 170.47 9.28897 170.504 9.62507C170.504 9.86033 170.437 10.0956 170.303 10.2973C170.168 10.4989 170.034 10.667 169.899 10.835C168.957 12.0786 168.017 13.2885 167.042 14.5321C166.841 14.8009 166.606 15.1034 166.403 15.3723C166.37 15.4396 166.302 15.5068 166.268 15.5739C166.202 15.6412 166.236 15.7084 166.268 15.8093C166.336 15.9101 166.37 15.9773 166.437 16.0782C167.345 17.4225 168.285 18.7333 169.192 20.0776C169.765 20.8843 170.335 21.7245 170.873 22.5312C170.974 22.6656 171.042 22.8 171.108 22.9345C171.076 23.0689 171.076 23.3042 171.076 23.5394Z" fill="#9E9E9E"/>
<path d="M0.40625 27.3711C0.507078 27.3039 0.540687 27.1694 0.574297 27.0686C0.843174 26.4637 1.2801 26.1275 1.91869 25.9932C2.08673 25.9595 2.22117 25.9595 2.38922 25.9595C3.46472 25.9595 4.57383 25.9595 5.64934 25.9595C9.61527 25.9595 13.5812 25.9595 17.5807 25.9595C17.7823 25.9595 18.0177 25.9595 18.2193 26.0267C18.9923 26.2284 19.5637 26.9005 19.5974 27.7072C19.5974 28.7491 19.5974 29.8245 19.5974 30.8666C19.5974 31.5723 19.2276 32.1101 18.589 32.4125C18.4882 32.4798 18.3874 32.5133 18.2866 32.5469C12.7746 32.5469 7.2626 32.5469 1.71702 32.5469C1.68342 32.5133 1.61619 32.4798 1.58259 32.4798C1.07844 32.2444 0.742344 31.9084 0.540687 31.4042C0.507078 31.3371 0.473468 31.2698 0.40625 31.2026C0.40625 29.9253 0.40625 28.6483 0.40625 27.3711Z" fill="#9E9E9E"/>
<path d="M44.0293 19.708C44.0293 16.4815 44.0293 13.255 44.0293 10.0285C44.0293 9.89402 44.0293 9.75959 44.0293 9.65876C43.9956 9.28906 44.399 8.78491 44.9031 8.81853C45.5753 8.81853 46.2811 8.81853 46.9533 8.81853C47.2558 8.81853 47.5247 8.81853 47.8271 8.81853C48.3985 8.81853 48.7011 9.08739 48.8019 9.65876C48.8019 9.72597 48.8019 9.79321 48.8354 9.86042C48.8354 9.89402 48.9027 9.92764 48.9363 9.89404C49.0035 9.86042 49.0371 9.79321 49.1043 9.75959C49.9446 9.05379 50.8856 8.61686 51.9611 8.48243C53.2047 8.31438 54.4482 8.41522 55.6582 8.88575C56.532 9.22184 57.3387 9.69237 58.0109 10.331C59.3552 11.5745 60.1283 13.1541 60.4308 14.9691C60.5316 15.6076 60.5651 16.2126 60.5316 16.8513C60.4643 18.0275 60.2291 19.2039 59.6913 20.2793C58.9519 21.7917 57.8765 22.9346 56.3976 23.7076C55.4901 24.1781 54.5155 24.4133 53.5072 24.4806C52.3645 24.5478 51.2889 24.3797 50.247 23.9765C49.8773 23.8419 49.5413 23.6403 49.2051 23.3714C49.1716 23.3379 49.1379 23.3043 49.1043 23.2706C49.0035 23.2035 48.9363 23.237 48.9027 23.3379C48.9027 23.4387 48.9027 23.573 48.9027 23.674C48.9027 25.5897 48.9027 27.5054 48.9027 29.4212C48.9027 29.5556 48.9027 29.7237 48.869 29.8582C48.8354 30.3287 48.4322 30.6647 47.9952 30.6312C47.1214 30.6312 46.2474 30.6312 45.3736 30.6312C45.2056 30.6312 45.0375 30.6312 44.8696 30.6312C44.4326 30.5975 44.1301 30.3287 44.0964 29.8917C44.0964 29.7574 44.0964 29.6228 44.0964 29.4885C44.0293 26.2283 44.0293 22.9681 44.0293 19.708ZM48.8019 16.4143C48.8019 16.6832 48.8354 16.9184 48.869 17.1537C49.1716 18.4645 49.911 19.3383 51.1545 19.7753C51.3897 19.8761 51.6586 19.9096 51.9275 19.9433C52.5326 20.0104 53.1039 19.9096 53.6416 19.6744C54.6163 19.2039 55.2212 18.4309 55.4901 17.4226C55.6246 16.9521 55.6246 16.4478 55.5909 15.9773C55.4901 15.1708 55.1877 14.4313 54.5826 13.8936C53.7088 13.0533 52.6669 12.7508 51.4905 12.9861C50.7176 13.1542 50.0454 13.5911 49.5413 14.1961C49.0371 14.8346 48.8019 15.6076 48.8019 16.4143Z" fill="#9E9E9E"/>
<path d="M81.4705 8.81848C82.0083 8.81848 82.5125 8.81848 83.0502 8.81848C83.151 8.81848 83.2183 8.81848 83.3191 8.81848C83.6215 8.8521 83.8569 8.98653 84.025 9.25541C84.0921 9.38984 84.1593 9.55789 84.1929 9.69234C84.6971 11.4064 85.2012 13.0869 85.6717 14.801C86.0414 16.0781 86.4112 17.3553 86.7809 18.6325C86.7809 18.6661 86.8144 18.7334 86.8144 18.7669C86.8817 18.9685 86.9154 18.9685 87.117 19.0022C87.3859 19.0022 87.4195 18.9685 87.4867 18.7334C87.7219 17.8594 87.9573 16.9856 88.1925 16.1118C88.7638 14.028 89.3352 11.9106 89.9065 9.82677C89.9402 9.65873 90.0075 9.49068 90.1083 9.35624C90.3099 9.05376 90.5788 8.88571 90.9148 8.8521C90.9821 8.8521 91.0156 8.8521 91.0829 8.8521C92.1583 8.8521 93.2004 8.8521 94.2758 8.8521C94.4102 8.8521 94.5447 8.8521 94.6791 8.88571C95.0152 8.98653 95.2169 9.22181 95.2506 9.55791C95.2841 9.75956 95.2169 9.96121 95.1833 10.1629C94.9817 10.7678 94.8136 11.3728 94.612 11.9778C93.9061 14.196 93.2339 16.4478 92.5281 18.6661C92.1585 19.8425 91.7888 21.0523 91.4191 22.2287C90.9821 23.573 90.5788 24.9511 90.1418 26.2954C89.9402 26.9677 89.6713 27.6399 89.2681 28.2448C88.6967 29.1523 87.9908 29.8917 87.0498 30.3958C86.3776 30.7655 85.6382 30.9671 84.8652 31.068C84.4618 31.1017 84.0585 31.1352 83.6215 31.1352C82.5125 31.068 81.437 30.8663 80.4623 30.3285C80.0589 30.0933 79.6557 29.858 79.3195 29.522C78.9499 29.1858 78.9162 28.7153 79.1179 28.312C79.1851 28.2112 79.2524 28.0767 79.3195 27.9759C79.6221 27.5391 79.891 27.1356 80.1934 26.6988C80.2606 26.6316 80.2943 26.5643 80.3615 26.4635C80.6975 26.0267 81.0673 25.8921 81.605 26.0602C81.7731 26.0938 81.9075 26.1946 82.042 26.2618C82.2099 26.3627 82.378 26.4972 82.5797 26.598C82.9158 26.7659 83.2855 26.9004 83.6552 26.9004C84.2938 26.9004 84.7979 26.6316 85.1341 26.1275C85.2012 25.9929 85.2685 25.8586 85.3357 25.7241C85.5037 25.2872 85.6717 24.8167 85.8063 24.3797C85.8398 24.3125 85.8398 24.2789 85.8398 24.2116C85.8398 24.1444 85.8063 24.1108 85.7726 24.0773C85.6717 24.0773 85.6046 24.0773 85.5037 24.0773C85.0668 24.0773 84.6634 24.0773 84.2266 24.0773C83.6215 24.0773 83.3191 23.8419 83.1174 23.3041C82.8486 22.4976 82.5797 21.7246 82.3108 20.9179C81.941 19.7752 81.5378 18.6325 81.1681 17.4897C80.3951 15.137 79.6221 12.7844 78.8154 10.3981C78.7819 10.2637 78.7482 10.1293 78.681 9.96121C78.6473 9.89399 78.6473 9.82677 78.6473 9.75956C78.6138 9.25541 78.8827 8.91931 79.3868 8.8521C79.4876 8.81848 79.6221 8.8521 79.7229 8.8521C80.3615 8.81848 80.8992 8.81848 81.4705 8.81848Z" fill="#9E9E9E"/>
<path d="M133.802 9.82689C133.869 9.79329 133.869 9.72607 133.869 9.69246C134.003 9.05388 134.272 8.81861 134.945 8.81861C135.751 8.81861 136.558 8.81861 137.398 8.81861C137.532 8.81861 137.633 8.81861 137.768 8.81861C138.272 8.81861 138.574 9.1211 138.675 9.59163C138.709 9.69246 138.709 9.82691 138.709 9.92772C138.709 14.2634 138.709 18.5991 138.709 22.9346C138.709 23.069 138.709 23.2035 138.675 23.3379C138.574 23.7076 138.272 23.9765 137.902 24.0102C137.869 24.0102 137.801 24.0102 137.768 24.0102C136.793 24.0102 135.852 24.0102 134.877 24.0102C134.306 24.0102 134.037 23.7749 133.903 23.2371C133.903 23.2035 133.903 23.1363 133.869 23.1027C133.835 23.0355 133.802 23.0355 133.768 23.069C133.667 23.1363 133.6 23.2035 133.533 23.2708C132.827 23.8757 131.987 24.2119 131.079 24.3798C130.676 24.4471 130.273 24.4808 129.836 24.4808C129.096 24.4808 128.357 24.3798 127.651 24.1446C126.408 23.7413 125.332 23.1027 124.458 22.1617C123.887 21.5566 123.416 20.8509 123.047 20.1115C122.61 19.2712 122.374 18.3637 122.307 17.4227C122.206 16.1454 122.274 14.8684 122.677 13.6584C123.013 12.6501 123.551 11.7426 124.257 10.936C125.5 9.55803 127.013 8.7514 128.861 8.48252C129.735 8.34808 130.609 8.38168 131.449 8.58335C132.323 8.785 133.096 9.15471 133.735 9.79329C133.701 9.79329 133.735 9.82689 133.802 9.82689ZM133.835 16.3808C133.835 16.2127 133.835 16.0111 133.802 15.843C133.533 13.9609 131.718 12.5493 129.769 12.9862C129.029 13.1543 128.391 13.524 127.886 14.1289C127.046 15.1708 126.878 16.3135 127.248 17.5907C127.685 19.1704 129.298 20.2123 130.878 19.9769C131.617 19.8761 132.222 19.5737 132.76 19.0696C133.499 18.3637 133.835 17.4562 133.835 16.3808Z" fill="#9E9E9E"/>
<path d="M73.0361 23.0019C72.9689 23.0019 72.9353 23.0355 72.9016 23.069C72.1286 23.7749 71.2211 24.2119 70.1792 24.3798C68.0955 24.716 66.2134 24.2454 64.5329 23.0019C63.6926 22.3969 63.054 21.6239 62.5162 20.7164C61.9786 19.809 61.6424 18.8343 61.4743 17.7924C61.2727 16.3808 61.34 14.9692 61.8105 13.6248C62.4154 11.8771 63.491 10.4655 65.0707 9.52444C65.978 8.95308 66.9528 8.61698 68.0282 8.48255C69.003 8.38172 69.944 8.38171 70.8851 8.6842C71.5908 8.88586 72.2294 9.25556 72.8008 9.72609C72.868 9.75971 72.9016 9.82692 72.9689 9.86054C73.0024 9.89414 73.0361 9.86054 73.0361 9.82692C73.0361 9.75971 73.0361 9.69249 73.0697 9.62527C73.1369 9.18834 73.4729 8.88586 73.9099 8.85225C74.1116 8.85225 74.3132 8.85225 74.5148 8.85225C75.2542 8.85225 75.9937 8.85225 76.7331 8.85225C76.8339 8.85225 76.9012 8.85225 77.002 8.85225C77.439 8.88586 77.775 9.22194 77.8087 9.65887C77.8087 9.75971 77.8087 9.82692 77.8087 9.92775C77.8087 14.297 77.8087 18.6662 77.8087 23.0019C77.8087 23.1027 77.8087 23.1699 77.8087 23.2708C77.775 23.7076 77.4725 24.0438 77.002 24.0438C76.6995 24.0438 76.4306 24.0438 76.1282 24.0438C75.456 24.0438 74.7837 24.0438 74.1116 24.0438C74.0107 24.0438 73.9435 24.0438 73.8427 24.0438C73.4058 24.0101 73.1032 23.7076 73.0361 23.2708C73.0697 23.1699 73.1032 23.069 73.0361 23.0019ZM69.6751 12.8854C69.4735 12.8854 69.2382 12.919 69.0365 12.9526C67.8938 13.2215 67.0872 13.8601 66.6166 14.9356C66.3142 15.5741 66.2469 16.28 66.3477 16.9857C66.4485 17.7251 66.7511 18.3974 67.2888 18.9351C68.0955 19.7418 69.0365 20.1115 70.1792 19.9434C71.0195 19.8426 71.7253 19.4393 72.263 18.8007C73.204 17.6243 73.3386 16.3135 72.8008 14.9692C72.263 13.6248 70.9187 12.8854 69.6751 12.8854Z" fill="#9E9E9E"/>
<path d="M102.341 8.38159C103.013 8.38159 103.82 8.44882 104.593 8.61686C105.433 8.78491 106.24 9.121 106.979 9.52432C107.349 9.72598 107.719 9.92763 108.055 10.1965C108.122 10.2301 108.189 10.2973 108.223 10.3646C108.66 10.8015 108.693 11.3392 108.324 11.8098C108.189 11.9778 108.055 12.1122 107.92 12.2803C107.651 12.5828 107.382 12.8853 107.114 13.1878C106.778 13.5911 106.341 13.6919 105.836 13.5575C105.635 13.4903 105.467 13.423 105.299 13.3222C104.795 13.0197 104.257 12.7508 103.719 12.5156C103.215 12.3139 102.677 12.2131 102.106 12.2131C101.736 12.2131 101.366 12.2467 100.997 12.4147C100.829 12.482 100.661 12.5828 100.56 12.7172C100.358 12.9525 100.324 13.255 100.526 13.4903C100.661 13.6583 100.862 13.7927 101.097 13.86C101.366 13.9608 101.635 14.028 101.938 14.0952C102.845 14.2633 103.786 14.4313 104.694 14.633C105.601 14.8346 106.475 15.1372 107.248 15.7085C107.92 16.179 108.458 16.784 108.76 17.5906C109.029 18.2964 109.097 19.0022 108.996 19.7417C108.929 20.2794 108.76 20.8171 108.525 21.3213C108.189 21.9598 107.752 22.4976 107.215 22.9346C106.273 23.6403 105.231 24.0772 104.089 24.3126C103.484 24.447 102.845 24.4805 102.207 24.4805C100.761 24.4805 99.3499 24.2789 98.0391 23.674C97.5349 23.4386 97.0308 23.2034 96.5938 22.901C96.2578 22.6992 95.9552 22.4303 95.6863 22.1279C95.5855 22.027 95.4847 21.8927 95.4176 21.7582C95.1487 21.2876 95.1822 20.7835 95.5184 20.3803C95.6192 20.2457 95.7536 20.1449 95.8544 20.0441C96.2578 19.7417 96.6611 19.4392 97.0643 19.1366C97.1989 19.0358 97.3668 18.935 97.5349 18.8677C97.7702 18.7669 97.9719 18.7669 98.207 18.8342C98.5096 18.935 98.7448 19.103 98.9802 19.3047C99.3834 19.6408 99.8204 19.9097 100.291 20.1785C101.097 20.6155 101.971 20.7163 102.879 20.6155C103.282 20.5819 103.618 20.4474 103.921 20.1114C104.055 19.9768 104.122 19.8088 104.122 19.6071C104.122 19.3719 104.022 19.1703 103.82 19.0358C103.618 18.935 103.417 18.8342 103.215 18.7669C102.744 18.6325 102.274 18.5317 101.803 18.4309C101.064 18.2628 100.291 18.1284 99.5515 17.9604C98.7784 17.7923 98.0391 17.4898 97.4005 17.0528C96.2241 16.2462 95.6528 15.1372 95.5855 13.7255C95.5519 13.2214 95.5855 12.7508 95.72 12.2467C95.8881 11.6417 96.1905 11.0704 96.5938 10.5998C97.1652 9.89403 97.9383 9.38988 98.7785 9.02017C99.4507 8.71769 100.19 8.54964 100.929 8.44882C101.333 8.38159 101.77 8.38159 102.341 8.38159Z" fill="#9E9E9E"/>
<path d="M148.154 8.38166C149.229 8.34806 150.203 8.51611 151.145 8.85221C152.153 9.1883 153.026 9.75967 153.8 10.4655C154.203 10.8352 154.539 11.2049 154.842 11.6418C154.876 11.709 154.942 11.7762 154.976 11.8435C155.346 12.4148 155.111 12.9526 154.775 13.2887C154.741 13.3223 154.673 13.3895 154.607 13.4231C154.035 13.86 153.464 14.297 152.892 14.7339C152.321 15.1708 151.918 15.1036 151.448 14.7003C151.346 14.633 151.279 14.5322 151.213 14.465C150.91 14.1289 150.574 13.7928 150.203 13.5239C149.699 13.1206 149.094 12.9526 148.49 12.919C147.448 12.8517 146.54 13.2214 145.801 13.9609C145.364 14.3978 145.095 14.9355 144.961 15.5406C144.792 16.2463 144.826 16.9857 145.061 17.6579C145.498 18.9015 146.372 19.6745 147.683 19.9097C148.221 20.0105 148.759 19.9434 149.297 19.8089C149.801 19.6745 150.203 19.3721 150.574 19.0359C150.809 18.8006 151.044 18.5654 151.279 18.33C151.448 18.1621 151.615 18.0276 151.817 17.9268C152.086 17.7924 152.321 17.7924 152.59 17.9268C152.691 17.994 152.825 18.0613 152.926 18.1284C153.498 18.5654 154.069 18.9686 154.641 19.4056C154.808 19.54 154.942 19.7081 155.077 19.8761C155.279 20.2123 155.279 20.5819 155.077 20.918C154.908 21.1869 154.741 21.4221 154.539 21.6574C153.834 22.4977 152.96 23.1363 151.984 23.6404C151.245 24.0101 150.472 24.2117 149.666 24.3463C149.229 24.4134 148.793 24.4134 148.355 24.4471C147.986 24.4806 147.616 24.4134 147.246 24.3798C146.204 24.279 145.196 23.9765 144.288 23.4723C142.541 22.5312 141.263 21.1197 140.558 19.2375C140.289 18.4981 140.154 17.7587 140.087 16.9857C139.986 15.8094 140.154 14.6666 140.558 13.5575C141.263 11.709 142.473 10.2974 144.221 9.35634C145.028 8.91942 145.902 8.61694 146.809 8.44889C147.212 8.41528 147.716 8.38166 148.154 8.38166Z" fill="#9E9E9E"/>
<path d="M112.123 16.4816C112.123 15.4733 112.123 14.465 112.123 13.4567C112.123 12.9526 112.123 12.9526 111.585 12.9526C111.283 12.9526 110.98 12.9526 110.678 12.9526C110.543 12.9526 110.409 12.9526 110.275 12.919C109.871 12.8518 109.569 12.5493 109.535 12.1124C109.535 12.0452 109.535 11.9443 109.535 11.8771C109.535 11.2049 109.535 10.5327 109.535 9.86052C109.535 9.7933 109.535 9.72609 109.535 9.65887C109.569 9.18833 109.905 8.85224 110.375 8.81863C110.745 8.81863 111.115 8.81863 111.518 8.81863C111.652 8.81863 111.787 8.81863 111.888 8.81863C112.022 8.81863 112.056 8.75141 112.089 8.61698C112.089 8.51615 112.089 8.41531 112.089 8.31448C112.089 7.33981 112.089 6.36513 112.089 5.39045C112.089 5.25602 112.089 5.12157 112.089 5.02074C112.157 4.61743 112.426 4.34856 112.829 4.24773C112.93 4.21411 113.064 4.21411 113.165 4.21411C114.072 4.21411 114.98 4.21411 115.887 4.21411C116.022 4.21411 116.156 4.21411 116.291 4.24773C116.627 4.34856 116.828 4.55021 116.929 4.91992C116.963 5.08797 116.963 5.25602 116.963 5.42407C116.963 6.39874 116.963 7.33981 116.963 8.31448C116.963 8.41531 116.963 8.51615 116.963 8.61698C116.963 8.7178 117.03 8.78503 117.131 8.78503C117.232 8.78503 117.333 8.78503 117.433 8.78503C118.509 8.78503 119.551 8.78503 120.626 8.78503C120.727 8.78503 120.828 8.78503 120.929 8.78503C121.399 8.81863 121.769 9.18833 121.769 9.65887C121.769 10.4319 121.769 11.2049 121.769 11.9443C121.769 12.4149 121.467 12.7509 121.03 12.8518C120.862 12.8854 120.66 12.8854 120.492 12.8854C119.484 12.8854 118.475 12.8854 117.467 12.8854C117.366 12.8854 117.265 12.8854 117.164 12.8854C117.03 12.8854 116.996 12.9526 116.963 13.087C116.963 13.1543 116.963 13.2551 116.963 13.3223C116.963 15.0028 116.963 16.6497 116.963 18.3302C116.963 18.4646 116.963 18.5991 116.963 18.6999C117.03 19.3048 117.467 19.7418 118.106 19.7753C118.542 19.8089 118.912 19.6745 119.282 19.4729C119.383 19.4393 119.45 19.3721 119.551 19.3048C119.685 19.2375 119.786 19.1704 119.921 19.1367C120.29 19.0359 120.66 19.1367 120.895 19.4729C120.996 19.6073 121.097 19.7753 121.198 19.9434C121.433 20.3467 121.668 20.7164 121.937 21.1197C121.971 21.1869 122.038 21.2877 122.071 21.355C122.34 21.8255 122.273 22.2288 121.903 22.6658C121.635 22.9682 121.298 23.2371 120.929 23.4388C120.189 23.8757 119.383 24.1109 118.542 24.2454C118.005 24.3127 117.467 24.3463 116.929 24.3127C115.854 24.2454 114.845 23.9766 113.938 23.3044C112.997 22.6322 112.426 21.6912 112.19 20.5483C112.089 20.1115 112.056 19.6745 112.056 19.2375C112.123 18.3637 112.123 17.4227 112.123 16.4816Z" fill="#9E9E9E"/>
</g>
<defs>
<clipPath id="clip0">
<rect width="171.478" height="34" fill="white"/>
</clipPath>
</defs>
</svg>
