<svg width="48" height="60" viewBox="0 0 48 60" fill="none" xmlns="http://www.w3.org/2000/svg">
<path d="M17.8807 51.4805L2.40024 36L17.8807 20.5195L20.5898 23.2286L7.81848 36L20.5898 48.7713L17.8807 51.4805Z" fill="url(#paint0_linear)"/>
<path d="M26.9943 51.0927L11.9007 36L26.9943 20.9069L28.9297 22.8418L15.771 36L28.9297 49.1583L26.9943 51.0927Z" fill="url(#paint1_linear)"/>
<path d="M36.105 50.7067L21.3987 35.9999L36.105 21.2937L37.2656 22.4548L23.7205 35.9999L37.2656 49.5451L36.105 50.7067Z" fill="url(#paint2_linear)"/>
<path d="M45.2142 50.3194L30.8948 36L45.2142 21.6807L45.6016 22.0676L31.6696 36L45.6016 49.932L45.2142 50.3194Z" fill="url(#paint3_linear)"/>
<defs>
<linearGradient id="paint0_linear" x1="11.495" y1="51.4805" x2="11.495" y2="20.5195" gradientUnits="userSpaceOnUse">
<stop stop-color="#301446"/>
<stop offset="0.260417" stop-color="#301446"/>
<stop offset="1" stop-color="#7B7FDA"/>
</linearGradient>
<linearGradient id="paint1_linear" x1="20.4152" y1="51.0927" x2="20.4152" y2="20.9069" gradientUnits="userSpaceOnUse">
<stop stop-color="#301446"/>
<stop offset="0.260417" stop-color="#301446"/>
<stop offset="1" stop-color="#7B7FDA"/>
</linearGradient>
<linearGradient id="paint2_linear" x1="29.3322" y1="50.7067" x2="29.3322" y2="21.2937" gradientUnits="userSpaceOnUse">
<stop stop-color="#301446"/>
<stop offset="0.260417" stop-color="#301446"/>
<stop offset="1" stop-color="#7B7FDA"/>
</linearGradient>
<linearGradient id="paint3_linear" x1="38.2482" y1="50.3194" x2="38.2482" y2="21.6807" gradientUnits="userSpaceOnUse">
<stop stop-color="#301446"/>
<stop offset="0.260417" stop-color="#301446"/>
<stop offset="1" stop-color="#7B7FDA"/>
</linearGradient>
</defs>
</svg>
