<svg width="76" height="18" viewBox="0 0 76 18" fill="none" xmlns="http://www.w3.org/2000/svg">
<path d="M8.58065 0L10.5071 5.92908H16.7413L11.6977 9.59345L13.6242 15.5225L8.58065 11.8582L3.53707 15.5225L5.46354 9.59345L0.419967 5.92908H6.65417L8.58065 0Z" fill="#F6BA42"/>
<path d="M28.1939 0L30.1204 5.92908H36.3546L31.311 9.59345L33.2375 15.5225L28.1939 11.8582L23.1504 15.5225L25.0768 9.59345L20.0332 5.92908H26.2675L28.1939 0Z" fill="#F6BA42"/>
<path d="M47.8072 0L49.7337 5.92908H55.9679L50.9243 9.59345L52.8508 15.5225L47.8072 11.8582L42.7636 15.5225L44.6901 9.59345L39.6465 5.92908H45.8807L47.8072 0Z" fill="#F6BA42"/>
<path d="M67.4205 0L69.347 5.92908H75.5812L70.5376 9.59345L72.4641 15.5225L67.4205 11.8582L62.3769 15.5225L64.3034 9.59345L59.2598 5.92908H65.494L67.4205 0Z" fill="#E5E5E5"/>
</svg>
