<svg width="63" height="78" viewBox="0 0 63 78" fill="none" xmlns="http://www.w3.org/2000/svg">
<g clip-path="url(#clip0)">
<path d="M31.2 0C13.936 0 0 13.936 0 31.2C0 48.464 13.936 62.4 31.2 62.4C48.464 62.4 62.4 48.464 62.4 31.2C62.4 13.936 48.464 0 31.2 0ZM42.016 32.864L26.416 42.5707C26.0693 42.7787 25.7227 42.848 25.376 42.848C25.0293 42.848 24.752 42.7787 24.4053 42.5707C23.7813 42.224 23.4347 41.6 23.4347 40.8373V21.424C23.4347 20.7307 23.8507 20.0373 24.4053 19.6907C25.0293 19.344 25.792 19.344 26.416 19.76L42.016 29.536C42.5707 29.8827 42.9173 30.5067 42.9173 31.2C42.9173 31.8933 42.5707 32.5173 42.016 32.864Z" fill="black"/>
</g>
<defs>
<clipPath id="clip0">
<rect width="62.4" height="78" fill="white"/>
</clipPath>
</defs>
</svg>
