<svg width="100" height="80" viewBox="0 0 100 80" fill="none" xmlns="http://www.w3.org/2000/svg">
<path d="M11.1992 72L12.0992 67.2C12.6992 64.5 15.1992 62.6 17.9992 62.6H19.9992C31.1992 62.6 38.9992 57.3 38.9992 50.4C38.9992 45.9 35.7992 42.3 31.3992 41.7C25.9992 41 21.4992 45.2 21.4992 50.4C21.4992 55.9 27.6992 62.6 40.5992 62.6H42.8992C45.4992 62.6 47.7992 64.3 48.5992 66.8L50.3992 73.2M50.3992 73.2L52.1992 66.7C52.9992 64.2 55.2992 62.6 57.8992 62.6C69.0992 62.6 76.8992 57.8 76.8992 50.4C76.8992 45.1 72.1992 40.9 66.6992 41.7C62.3992 42.4 59.1992 46.2 59.2992 50.5C59.3992 57.4 67.2992 62.5 78.3992 62.5H81.5992C84.2992 62.5 86.6992 64.3 87.3992 67L88.7992 73.2H50.3992Z" stroke="#002333" stroke-width="2" stroke-miterlimit="10" stroke-linecap="round" stroke-linejoin="round"/>
<path d="M22.3984 51.1C22.3984 51.1 27.1984 50.1 27.9984 46.9M39.6984 53.4C50.1984 53.4 57.4984 48.4 57.4984 42C57.4984 37.8 54.4984 34.4 50.3984 33.9C45.3984 33.2 41.0984 37.1 41.0984 42C41.0984 47.2 46.8984 53.4 58.8984 53.4H39.6984ZM26.0984 43.8C26.0984 43.8 30.0984 52.3 39.1984 52.1L26.0984 43.8ZM60.4984 48.3C60.4984 48.3 65.4984 48.7 68.6984 45.5C71.6984 48.5 76.0984 48.4 76.0984 48.4L60.4984 48.3Z" stroke="#002333" stroke-width="2" stroke-miterlimit="10" stroke-linecap="round" stroke-linejoin="round"/>
<path d="M55 36.2C55 36.2 51.8 38.6 47.6 39.9C43.4 41.2 41.5 41.1 41.5 41.1" stroke="#002333" stroke-width="2" stroke-miterlimit="10" stroke-linecap="round" stroke-linejoin="round"/>
<path d="M77.8008 35.2H84.6008M27.2008 42.2C27.2008 30.1 37.0008 20.3 49.1008 20.3C61.2008 20.3 71.0008 30.1 71.0008 42.2H27.2008ZM49.0008 6.29999V13V6.29999ZM73.1008 13.9L68.3008 18.6L73.1008 13.9ZM25.2008 13.9L29.9008 18.6L25.2008 13.9ZM13.8008 35.2H20.5008H13.8008Z" stroke="#002333" stroke-width="2" stroke-miterlimit="10" stroke-linecap="round" stroke-linejoin="round"/>
</svg>
