<svg width="100" height="80" viewBox="0 0 100 80" fill="none" xmlns="http://www.w3.org/2000/svg">
<path d="M62.3993 72.2V54.2L65.0993 70.2C65.0993 70.2 65.9993 74.9 70.0993 74.1C74.1993 73.3 73.1993 68.9 73.1993 68.9L67.5993 38.8C66.7993 36.3 64.4993 34.6 61.8993 34.6H59.5993C46.6993 34.6 40.4993 28 40.4993 22.4C40.4993 17.2 45.0993 13 50.3993 13.7C54.7993 14.3 57.9993 17.9 57.9993 22.4C57.9993 29.2 50.1993 34.6 38.9993 34.6H36.9993C34.1993 34.6 31.7993 36.5 31.0993 39.2L26.4993 69.5C26.1993 71.7 27.8993 73.7 30.0993 74.1H29.8993C32.0993 74.4 34.4993 72.9 34.8993 70.7L37.3993 54.1V72.1C37.3993 72.1 41.5993 76.3 49.6993 76.3C57.7993 76.3 62.3993 72.2 62.3993 72.2V72.2Z" stroke="#002333" stroke-width="2" stroke-miterlimit="10" stroke-linecap="round" stroke-linejoin="round"/>
<path d="M40.8984 19.5C40.8984 19.5 45.8984 19.9 49.0984 16.7C52.0984 19.7 56.4984 19.6 56.4984 19.6M42.8984 35.1C42.8984 35.1 42.4984 42.4 49.2984 42.4C56.0984 42.4 56.1984 35.1 56.1984 35.1H42.8984Z" stroke="#002333" stroke-width="2" stroke-miterlimit="10" stroke-linecap="round" stroke-linejoin="round"/>
<path d="M49.1996 64C44.8996 63.7 42.4996 61.9 41.9996 59.5C41.8996 59 42.1996 58.6 42.6996 58.6H46.6996C46.9996 58.6 47.2996 58.8 47.3996 59.1C47.6996 59.9 48.4996 60.3 49.4996 60.3C50.2996 60.3 51.1996 59.8 51.1996 59C51.1996 58.2 50.7996 57.8 49.7996 57.4L46.4996 56.6C43.7996 55.9 42.2996 54.3 42.2996 51.7C42.2996 48.6 45.0996 46.5 49.3996 46.5L50.7996 46.6C54.3996 46.9 56.5996 48.5 56.8996 51.2C56.8996 51.5 56.6996 51.7 56.3996 51.7H51.7996C51.5996 51.7 51.3996 51.6 51.2996 51.3C51.0996 50.4 50.3996 50 49.3996 50.1C48.6996 50.2 48.0996 50.6 48.0996 51.4C48.0996 52.1 48.4996 52.6 49.5996 52.9L52.7996 53.8C55.3996 54.5 56.9996 56.1 56.9996 58.6C56.9996 61.7 54.4996 63.9 50.5996 64.1H49.1996V64V64Z" stroke="#002333" stroke-width="2" stroke-miterlimit="10" stroke-linecap="round"/>
<path d="M29.8992 46.3L20.8992 42.3L25.7992 33L20.6992 23.8L30.0992 19.2L31.2992 8.79999L41.6992 10.6L48.7992 2.79999L56.0992 10.4L66.3992 8.29999L67.8992 18.7L77.4992 23.1L72.4992 32.4L77.6992 41.5L68.8992 46" stroke="#002333" stroke-width="2" stroke-miterlimit="10" stroke-linecap="round" stroke-linejoin="round"/>
</svg>
