<svg width="100" height="80" viewBox="0 0 100 80" fill="none" xmlns="http://www.w3.org/2000/svg">
<path d="M73.3984 18.2V9.5C73.3984 8.4 72.5984 7.5 71.5984 7.5H29.6984C28.6984 7.5 27.8984 8.4 27.8984 9.5V33.5C27.8984 34.6 28.6984 35.5 29.6984 35.5H71.5984C72.5984 35.5 73.2984 34.6 73.2984 33.6V18.2H73.3984V18.2Z" stroke="#002333" stroke-width="2" stroke-miterlimit="10" stroke-linecap="round"/>
<path d="M60.2008 31.3L61.3008 35.5M41.8008 27.3H33.3008C32.4008 27.3 31.8008 26.6 31.8008 25.8V13.1C31.8008 12.2 32.5008 11.6 33.3008 11.6H41.8008C42.7008 11.6 43.3008 12.3 43.3008 13.1V25.7C43.3008 26.6 42.6008 27.3 41.8008 27.3ZM65.8008 35.5L63.7008 27.2C63.3008 26 62.2008 25.2 60.9008 25.2H59.8008C54.3008 25.2 50.4008 22 50.4008 19.2C50.4008 16.8 52.3008 14.9 54.7008 14.9C57.1008 14.9 59.0008 16.8 59.0008 19.2C59.0008 22.6 55.2008 25.2 49.7008 25.2H48.7008C47.3008 25.2 46.1008 26.1 45.8008 27.5L44.6008 35.6L65.8008 35.5ZM49.9008 31.3L49.1008 35.5L49.9008 31.3Z" stroke="#002333" stroke-width="2" stroke-miterlimit="10" stroke-linecap="round"/>
<path d="M69.9003 54.6H61.6003C58.5003 54.6 55.3003 58.3 53.8003 58.3H47.3003C43.0003 58.3 43.0003 64.1 46.7003 64.1H58.5003M70.2303 70.91H82.2303V51.91H70.2303V70.91Z" stroke="#002333" stroke-width="2" stroke-miterlimit="10" stroke-linecap="round" stroke-linejoin="round"/>
<path d="M56.2006 47.3L57.7006 42.5M69.7006 68.6C66.9006 68.6 55.5006 74.4 52.0006 74.4C48.5006 74.4 30.6006 64.1 28.8006 63.2C25.1006 61.3 31.9006 59.1 35.0006 60.2C37.8006 61.2 45.5006 63.9 45.5006 63.9L69.7006 68.6ZM57.0006 50.4C58.4593 50.4 59.8583 49.8205 60.8897 48.7891C61.9212 47.7576 62.5006 46.3587 62.5006 44.9C62.5006 43.4413 61.9212 42.0424 60.8897 41.0109C59.8583 39.9795 58.4593 39.4 57.0006 39.4C55.5419 39.4 54.143 39.9795 53.1115 41.0109C52.0801 42.0424 51.5006 43.4413 51.5006 44.9C51.5006 46.3587 52.0801 47.7576 53.1115 48.7891C54.143 49.8205 55.5419 50.4 57.0006 50.4V50.4ZM40.5006 55.6C41.9593 55.6 43.3583 55.0205 44.3897 53.9891C45.4212 52.9576 46.0006 51.5587 46.0006 50.1C46.0006 48.6413 45.4212 47.2424 44.3897 46.2109C43.3583 45.1795 41.9593 44.6 40.5006 44.6C39.0419 44.6 37.643 45.1795 36.6115 46.2109C35.5801 47.2424 35.0006 48.6413 35.0006 50.1C35.0006 51.5587 35.5801 52.9576 36.6115 53.9891C37.643 55.0205 39.0419 55.6 40.5006 55.6ZM38.5006 48.7L42.6006 51.5L38.5006 48.7Z" stroke="#002333" stroke-width="2" stroke-miterlimit="10" stroke-linecap="round" stroke-linejoin="round"/>
</svg>
