<svg width="32" height="40" viewBox="0 0 32 40" fill="none" xmlns="http://www.w3.org/2000/svg">
<path d="M5.44092 20.196L5.13826 24.196C5.12626 24.3586 5.18492 24.5186 5.30092 24.6333C5.40626 24.7386 5.54892 24.7973 5.69559 24.7973C5.71026 24.7973 5.72359 24.7973 5.73826 24.796L9.74092 24.4933C9.87426 24.484 9.99959 24.4253 10.0943 24.3306L24.9276 9.49331C25.1463 9.27464 25.1463 8.92131 24.9276 8.70264L21.2303 5.00531C21.0116 4.78664 20.6583 4.78664 20.4396 5.00531L5.60226 19.8426C5.50759 19.9373 5.45026 20.0626 5.44092 20.196ZM6.53959 20.4866L20.8343 6.19198L23.7409 9.09864L9.44759 23.3933L6.30092 23.6306L6.53959 20.4866Z" fill="#301446"/>
<path d="M4.85938 26.5986C4.85938 26.908 5.11004 27.1573 5.41804 27.1573H26.5834C26.8927 27.1573 27.142 26.9066 27.142 26.5986C27.142 26.2893 26.8914 26.04 26.5834 26.04H5.41804C5.10871 26.04 4.85938 26.2906 4.85938 26.5986Z" fill="#301446"/>
</svg>
