<svg width="25" height="25" viewBox="0 0 25 25" fill="none" xmlns="http://www.w3.org/2000/svg">
<path d="M17.7096 18.75C18.2622 18.75 18.7921 18.9695 19.1828 19.3602C19.5735 19.7509 19.793 20.2808 19.793 20.8334C19.793 21.3859 19.5735 21.9158 19.1828 22.3065C18.7921 22.6972 18.2622 22.9167 17.7096 22.9167C17.1571 22.9167 16.6272 22.6972 16.2365 22.3065C15.8458 21.9158 15.6263 21.3859 15.6263 20.8334C15.6263 19.6771 16.5534 18.75 17.7096 18.75ZM1.04297 2.08337H4.44922L5.42839 4.16671H20.8346C21.1109 4.16671 21.3759 4.27645 21.5712 4.4718C21.7666 4.66716 21.8763 4.93211 21.8763 5.20837C21.8763 5.38546 21.8242 5.56254 21.7513 5.72921L18.0221 12.4688C17.668 13.1042 16.9805 13.5417 16.1992 13.5417H8.4388L7.5013 15.2396L7.47005 15.3646C7.47005 15.4337 7.49749 15.4999 7.54633 15.5488C7.59516 15.5976 7.6614 15.625 7.73047 15.625H19.793V17.7084H7.29297C6.74043 17.7084 6.21053 17.4889 5.81983 17.0982C5.42913 16.7075 5.20964 16.1776 5.20964 15.625C5.20964 15.2605 5.30338 14.9167 5.45963 14.625L6.8763 12.073L3.1263 4.16671H1.04297V2.08337ZM7.29297 18.75C7.8455 18.75 8.37541 18.9695 8.76611 19.3602C9.15681 19.7509 9.3763 20.2808 9.3763 20.8334C9.3763 21.3859 9.15681 21.9158 8.76611 22.3065C8.37541 22.6972 7.8455 22.9167 7.29297 22.9167C6.74043 22.9167 6.21053 22.6972 5.81983 22.3065C5.42913 21.9158 5.20964 21.3859 5.20964 20.8334C5.20964 19.6771 6.13672 18.75 7.29297 18.75ZM16.668 11.4584L19.5638 6.25004H6.39714L8.85547 11.4584H16.668Z" fill="#301446"/>
</svg>
