<svg width="17" height="17" viewBox="0 0 17 17" fill="none" xmlns="http://www.w3.org/2000/svg">
<path d="M7.08458 13.4583C6.91908 13.4586 6.75868 13.401 6.63125 13.2954C6.55952 13.2359 6.50023 13.1629 6.45678 13.0805C6.41332 12.9981 6.38655 12.9079 6.37799 12.8151C6.36944 12.7224 6.37927 12.6288 6.40693 12.5398C6.43458 12.4509 6.47952 12.3682 6.53916 12.2966L9.7125 8.49998L6.6525 4.69623C6.59366 4.62377 6.54972 4.54041 6.52321 4.45092C6.49669 4.36143 6.48812 4.26758 6.498 4.17477C6.50787 4.08195 6.53599 3.99201 6.58074 3.9101C6.62549 3.82819 6.68598 3.75593 6.75875 3.69748C6.83204 3.63299 6.91786 3.58435 7.01084 3.55461C7.10382 3.52487 7.20194 3.51467 7.29905 3.52464C7.39615 3.53462 7.49015 3.56456 7.57514 3.61259C7.66013 3.66061 7.73427 3.72569 7.79291 3.80373L11.2142 8.05373C11.3183 8.18047 11.3753 8.33945 11.3753 8.50352C11.3753 8.66759 11.3183 8.82657 11.2142 8.95331L7.6725 13.2033C7.60144 13.289 7.51117 13.3568 7.40902 13.4011C7.30688 13.4454 7.19572 13.465 7.08458 13.4583Z" fill="#333333"/>
</svg>
