<svg width="36" height="45" viewBox="0 0 36 45" fill="none" xmlns="http://www.w3.org/2000/svg">
<g clip-path="url(#clip0)">
<path d="M21.2453 35.3917H0.346197C-2.81704 35.3917 -5.40391 36.6506 -5.40391 38.1893C-5.40391 39.7272 -2.81704 40.9865 0.346197 40.9865H21.2453C24.4086 40.9865 26.9961 39.7275 26.9961 38.1893C26.9961 36.6506 24.4086 35.3917 21.2453 35.3917Z" fill="#301446"/>
<path d="M0.346197 18.6084H21.2453C24.4086 18.6084 26.9961 17.3495 26.9961 15.8108C26.9961 14.2729 24.4086 13.0136 21.2453 13.0136H0.346197C-2.81704 13.0136 -5.40391 14.2726 -5.40391 15.8108C-5.40391 17.3495 -2.81704 18.6084 0.346197 18.6084Z" fill="#301446"/>
<path d="M3.91466 29.7972H29.9279C31.6843 29.7972 33.1211 28.5387 33.1211 27C33.1211 25.4614 31.6843 24.2028 29.9279 24.2028H3.91466C2.15822 24.2028 0.721817 25.4614 0.721817 27C0.721817 28.5387 2.15822 29.7972 3.91466 29.7972Z" fill="#301446"/>
</g>
<defs>
<clipPath id="clip0">
<rect width="36" height="45" fill="white" transform="translate(36 45) rotate(-180)"/>
</clipPath>
</defs>
</svg>
